<svg id="Layer_1" xmlns="http://www.w3.org/2000/svg" width="310" height="380" viewBox="0 0 310 380"><style>.st0{fill:#C8C7CC;} .st1{fill:#F16A5F;} .st2{fill:#FFFFFF;} .st3{opacity:0.15;} .st4{fill:#231F20;} .st5{fill:#F58F87;}</style><path class="st0" d="M229 31.3l-202.1 2C14 1.1 3.6 11.6 3.6 24.3v332.4C3.6 369.5 14 380 26.7 380h260.2c12.7 0 23.1-10.5 23.1-23.2V89.2l-81-57.9z"/><path class="st1" d="M306.9 143.8V85.5L221.4 0H23.6C10.9 0 .5 10.4.5 23.1v120.7h306.4z"/><path class="st2" d="M.5 143.8v209.6c0 12.7 10.4 23.1 23.1 23.1h260.2c12.7 0 23.1-10.4 23.1-23.1V143.8H.5z"/><path class="st0" d="M283.8 377H23.6C10.6 377 0 366.4 0 353.4V143.3h307.5v210.1c0 13-10.6 23.6-23.7 23.6zM1 144.3v209.1C1 365.9 11.2 376 23.6 376h260.2c12.5 0 22.6-10.1 22.6-22.6V144.3H1z"/><path class="st3 st4" d="M221.5 0l-4.4 81.4c0 8.3 6.8 15.1 15.1 15.1l74.6-11v-.1L221.5 0z"/><path class="st5" d="M221.5 0l-.1 70.3c0 8.3 6.8 15.1 15.1 15.1h70.3v-.1L221.5 0z"/><path class="st2" d="M.5 142.9h306.4v1.9H.5z"/><g><path class="st0" d="M174.1 236.5V188h-40.7v48.5h-37l57.3 68.5 57.4-68.5zM97.1 330h113.3v13.5H97.1z"/></g><g><path class="st2" d="M49.3 77.5v14.4H43v-38h14.8c4.2 0 7.5 1.1 9.9 3.2 2.4 2.2 3.6 5 3.6 8.5 0 3.6-1.2 6.4-3.6 8.6-2.4 2.1-5.7 3.2-9.9 3.2h-8.5zm0-5.1h8.5c2.3 0 4.1-.6 5.3-1.9 1.2-1.3 1.8-2.8 1.8-4.8 0-1.9-.6-3.5-1.8-4.8-1.2-1.3-2.9-1.9-5.3-1.9h-8.5v13.4zM76.9 91.9v-38h12.3c4.8 0 8.7 1.5 11.8 4.5 3 3 4.5 6.9 4.5 11.6v5.8c0 4.7-1.5 8.6-4.5 11.6s-6.9 4.5-11.8 4.5H76.9zM83.3 59v27.8h5.8c3.2 0 5.6-1 7.4-3.1 1.8-2.1 2.7-4.7 2.7-8V70c0-3.2-.9-5.8-2.7-7.9-1.8-2.1-4.3-3.1-7.4-3.1h-5.8zM134.5 75.7h-16.7v16.2h-6.3v-38h25.7V59h-19.3v11.6h16.7v5.1z"/></g></svg>