G04 EAGLE Gerber RS-274X export*
G75*
%MOMM*%
%FSLAX34Y34*%
%LPD*%
%INSolder paste top*%
%IPPOS*%
%AMOC8*
5,1,8,0,0,1.08239X$1,22.5*%
G01*
%ADD10C,0.000000*%
%ADD11R,0.304800X0.990600*%
%ADD12R,2.400000X1.600000*%
%ADD13R,0.177800X1.270000*%
%ADD14R,1.100000X1.000000*%
%ADD15R,1.600000X1.300000*%
%ADD16R,1.000000X1.100000*%
%ADD17R,1.320800X0.609600*%
%ADD18R,1.300000X1.500000*%
%ADD19R,0.901600X2.066000*%
%ADD20R,3.201600X2.066000*%
%ADD21R,1.500000X1.300000*%

G36*
X161802Y87275D02*
X161802Y87275D01*
X161804Y87274D01*
X161847Y87294D01*
X161891Y87312D01*
X161891Y87314D01*
X161893Y87315D01*
X161926Y87400D01*
X161926Y103100D01*
X161925Y103102D01*
X161926Y103104D01*
X161906Y103147D01*
X161888Y103191D01*
X161886Y103191D01*
X161885Y103193D01*
X161800Y103226D01*
X143000Y103226D01*
X142998Y103225D01*
X142996Y103226D01*
X142953Y103206D01*
X142909Y103188D01*
X142909Y103186D01*
X142907Y103185D01*
X142874Y103100D01*
X142874Y87400D01*
X142875Y87398D01*
X142874Y87396D01*
X142894Y87353D01*
X142912Y87309D01*
X142914Y87309D01*
X142915Y87307D01*
X143000Y87274D01*
X161800Y87274D01*
X161802Y87275D01*
G37*
D10*
X0Y0D02*
X700000Y0D01*
X700000Y400000D01*
X0Y400000D01*
X0Y0D01*
X14000Y30000D02*
X14005Y30393D01*
X14019Y30785D01*
X14043Y31177D01*
X14077Y31568D01*
X14120Y31959D01*
X14173Y32348D01*
X14236Y32735D01*
X14307Y33121D01*
X14389Y33506D01*
X14479Y33888D01*
X14580Y34267D01*
X14689Y34645D01*
X14808Y35019D01*
X14935Y35390D01*
X15072Y35758D01*
X15218Y36123D01*
X15373Y36484D01*
X15536Y36841D01*
X15708Y37194D01*
X15889Y37542D01*
X16079Y37886D01*
X16276Y38226D01*
X16482Y38560D01*
X16696Y38889D01*
X16919Y39213D01*
X17149Y39531D01*
X17386Y39844D01*
X17632Y40150D01*
X17885Y40451D01*
X18145Y40745D01*
X18412Y41033D01*
X18686Y41314D01*
X18967Y41588D01*
X19255Y41855D01*
X19549Y42115D01*
X19850Y42368D01*
X20156Y42614D01*
X20469Y42851D01*
X20787Y43081D01*
X21111Y43304D01*
X21440Y43518D01*
X21774Y43724D01*
X22114Y43921D01*
X22458Y44111D01*
X22806Y44292D01*
X23159Y44464D01*
X23516Y44627D01*
X23877Y44782D01*
X24242Y44928D01*
X24610Y45065D01*
X24981Y45192D01*
X25355Y45311D01*
X25733Y45420D01*
X26112Y45521D01*
X26494Y45611D01*
X26879Y45693D01*
X27265Y45764D01*
X27652Y45827D01*
X28041Y45880D01*
X28432Y45923D01*
X28823Y45957D01*
X29215Y45981D01*
X29607Y45995D01*
X30000Y46000D01*
X30393Y45995D01*
X30785Y45981D01*
X31177Y45957D01*
X31568Y45923D01*
X31959Y45880D01*
X32348Y45827D01*
X32735Y45764D01*
X33121Y45693D01*
X33506Y45611D01*
X33888Y45521D01*
X34267Y45420D01*
X34645Y45311D01*
X35019Y45192D01*
X35390Y45065D01*
X35758Y44928D01*
X36123Y44782D01*
X36484Y44627D01*
X36841Y44464D01*
X37194Y44292D01*
X37542Y44111D01*
X37886Y43921D01*
X38226Y43724D01*
X38560Y43518D01*
X38889Y43304D01*
X39213Y43081D01*
X39531Y42851D01*
X39844Y42614D01*
X40150Y42368D01*
X40451Y42115D01*
X40745Y41855D01*
X41033Y41588D01*
X41314Y41314D01*
X41588Y41033D01*
X41855Y40745D01*
X42115Y40451D01*
X42368Y40150D01*
X42614Y39844D01*
X42851Y39531D01*
X43081Y39213D01*
X43304Y38889D01*
X43518Y38560D01*
X43724Y38226D01*
X43921Y37886D01*
X44111Y37542D01*
X44292Y37194D01*
X44464Y36841D01*
X44627Y36484D01*
X44782Y36123D01*
X44928Y35758D01*
X45065Y35390D01*
X45192Y35019D01*
X45311Y34645D01*
X45420Y34267D01*
X45521Y33888D01*
X45611Y33506D01*
X45693Y33121D01*
X45764Y32735D01*
X45827Y32348D01*
X45880Y31959D01*
X45923Y31568D01*
X45957Y31177D01*
X45981Y30785D01*
X45995Y30393D01*
X46000Y30000D01*
X45995Y29607D01*
X45981Y29215D01*
X45957Y28823D01*
X45923Y28432D01*
X45880Y28041D01*
X45827Y27652D01*
X45764Y27265D01*
X45693Y26879D01*
X45611Y26494D01*
X45521Y26112D01*
X45420Y25733D01*
X45311Y25355D01*
X45192Y24981D01*
X45065Y24610D01*
X44928Y24242D01*
X44782Y23877D01*
X44627Y23516D01*
X44464Y23159D01*
X44292Y22806D01*
X44111Y22458D01*
X43921Y22114D01*
X43724Y21774D01*
X43518Y21440D01*
X43304Y21111D01*
X43081Y20787D01*
X42851Y20469D01*
X42614Y20156D01*
X42368Y19850D01*
X42115Y19549D01*
X41855Y19255D01*
X41588Y18967D01*
X41314Y18686D01*
X41033Y18412D01*
X40745Y18145D01*
X40451Y17885D01*
X40150Y17632D01*
X39844Y17386D01*
X39531Y17149D01*
X39213Y16919D01*
X38889Y16696D01*
X38560Y16482D01*
X38226Y16276D01*
X37886Y16079D01*
X37542Y15889D01*
X37194Y15708D01*
X36841Y15536D01*
X36484Y15373D01*
X36123Y15218D01*
X35758Y15072D01*
X35390Y14935D01*
X35019Y14808D01*
X34645Y14689D01*
X34267Y14580D01*
X33888Y14479D01*
X33506Y14389D01*
X33121Y14307D01*
X32735Y14236D01*
X32348Y14173D01*
X31959Y14120D01*
X31568Y14077D01*
X31177Y14043D01*
X30785Y14019D01*
X30393Y14005D01*
X30000Y14000D01*
X29607Y14005D01*
X29215Y14019D01*
X28823Y14043D01*
X28432Y14077D01*
X28041Y14120D01*
X27652Y14173D01*
X27265Y14236D01*
X26879Y14307D01*
X26494Y14389D01*
X26112Y14479D01*
X25733Y14580D01*
X25355Y14689D01*
X24981Y14808D01*
X24610Y14935D01*
X24242Y15072D01*
X23877Y15218D01*
X23516Y15373D01*
X23159Y15536D01*
X22806Y15708D01*
X22458Y15889D01*
X22114Y16079D01*
X21774Y16276D01*
X21440Y16482D01*
X21111Y16696D01*
X20787Y16919D01*
X20469Y17149D01*
X20156Y17386D01*
X19850Y17632D01*
X19549Y17885D01*
X19255Y18145D01*
X18967Y18412D01*
X18686Y18686D01*
X18412Y18967D01*
X18145Y19255D01*
X17885Y19549D01*
X17632Y19850D01*
X17386Y20156D01*
X17149Y20469D01*
X16919Y20787D01*
X16696Y21111D01*
X16482Y21440D01*
X16276Y21774D01*
X16079Y22114D01*
X15889Y22458D01*
X15708Y22806D01*
X15536Y23159D01*
X15373Y23516D01*
X15218Y23877D01*
X15072Y24242D01*
X14935Y24610D01*
X14808Y24981D01*
X14689Y25355D01*
X14580Y25733D01*
X14479Y26112D01*
X14389Y26494D01*
X14307Y26879D01*
X14236Y27265D01*
X14173Y27652D01*
X14120Y28041D01*
X14077Y28432D01*
X14043Y28823D01*
X14019Y29215D01*
X14005Y29607D01*
X14000Y30000D01*
X654000Y30000D02*
X654005Y30393D01*
X654019Y30785D01*
X654043Y31177D01*
X654077Y31568D01*
X654120Y31959D01*
X654173Y32348D01*
X654236Y32735D01*
X654307Y33121D01*
X654389Y33506D01*
X654479Y33888D01*
X654580Y34267D01*
X654689Y34645D01*
X654808Y35019D01*
X654935Y35390D01*
X655072Y35758D01*
X655218Y36123D01*
X655373Y36484D01*
X655536Y36841D01*
X655708Y37194D01*
X655889Y37542D01*
X656079Y37886D01*
X656276Y38226D01*
X656482Y38560D01*
X656696Y38889D01*
X656919Y39213D01*
X657149Y39531D01*
X657386Y39844D01*
X657632Y40150D01*
X657885Y40451D01*
X658145Y40745D01*
X658412Y41033D01*
X658686Y41314D01*
X658967Y41588D01*
X659255Y41855D01*
X659549Y42115D01*
X659850Y42368D01*
X660156Y42614D01*
X660469Y42851D01*
X660787Y43081D01*
X661111Y43304D01*
X661440Y43518D01*
X661774Y43724D01*
X662114Y43921D01*
X662458Y44111D01*
X662806Y44292D01*
X663159Y44464D01*
X663516Y44627D01*
X663877Y44782D01*
X664242Y44928D01*
X664610Y45065D01*
X664981Y45192D01*
X665355Y45311D01*
X665733Y45420D01*
X666112Y45521D01*
X666494Y45611D01*
X666879Y45693D01*
X667265Y45764D01*
X667652Y45827D01*
X668041Y45880D01*
X668432Y45923D01*
X668823Y45957D01*
X669215Y45981D01*
X669607Y45995D01*
X670000Y46000D01*
X670393Y45995D01*
X670785Y45981D01*
X671177Y45957D01*
X671568Y45923D01*
X671959Y45880D01*
X672348Y45827D01*
X672735Y45764D01*
X673121Y45693D01*
X673506Y45611D01*
X673888Y45521D01*
X674267Y45420D01*
X674645Y45311D01*
X675019Y45192D01*
X675390Y45065D01*
X675758Y44928D01*
X676123Y44782D01*
X676484Y44627D01*
X676841Y44464D01*
X677194Y44292D01*
X677542Y44111D01*
X677886Y43921D01*
X678226Y43724D01*
X678560Y43518D01*
X678889Y43304D01*
X679213Y43081D01*
X679531Y42851D01*
X679844Y42614D01*
X680150Y42368D01*
X680451Y42115D01*
X680745Y41855D01*
X681033Y41588D01*
X681314Y41314D01*
X681588Y41033D01*
X681855Y40745D01*
X682115Y40451D01*
X682368Y40150D01*
X682614Y39844D01*
X682851Y39531D01*
X683081Y39213D01*
X683304Y38889D01*
X683518Y38560D01*
X683724Y38226D01*
X683921Y37886D01*
X684111Y37542D01*
X684292Y37194D01*
X684464Y36841D01*
X684627Y36484D01*
X684782Y36123D01*
X684928Y35758D01*
X685065Y35390D01*
X685192Y35019D01*
X685311Y34645D01*
X685420Y34267D01*
X685521Y33888D01*
X685611Y33506D01*
X685693Y33121D01*
X685764Y32735D01*
X685827Y32348D01*
X685880Y31959D01*
X685923Y31568D01*
X685957Y31177D01*
X685981Y30785D01*
X685995Y30393D01*
X686000Y30000D01*
X685995Y29607D01*
X685981Y29215D01*
X685957Y28823D01*
X685923Y28432D01*
X685880Y28041D01*
X685827Y27652D01*
X685764Y27265D01*
X685693Y26879D01*
X685611Y26494D01*
X685521Y26112D01*
X685420Y25733D01*
X685311Y25355D01*
X685192Y24981D01*
X685065Y24610D01*
X684928Y24242D01*
X684782Y23877D01*
X684627Y23516D01*
X684464Y23159D01*
X684292Y22806D01*
X684111Y22458D01*
X683921Y22114D01*
X683724Y21774D01*
X683518Y21440D01*
X683304Y21111D01*
X683081Y20787D01*
X682851Y20469D01*
X682614Y20156D01*
X682368Y19850D01*
X682115Y19549D01*
X681855Y19255D01*
X681588Y18967D01*
X681314Y18686D01*
X681033Y18412D01*
X680745Y18145D01*
X680451Y17885D01*
X680150Y17632D01*
X679844Y17386D01*
X679531Y17149D01*
X679213Y16919D01*
X678889Y16696D01*
X678560Y16482D01*
X678226Y16276D01*
X677886Y16079D01*
X677542Y15889D01*
X677194Y15708D01*
X676841Y15536D01*
X676484Y15373D01*
X676123Y15218D01*
X675758Y15072D01*
X675390Y14935D01*
X675019Y14808D01*
X674645Y14689D01*
X674267Y14580D01*
X673888Y14479D01*
X673506Y14389D01*
X673121Y14307D01*
X672735Y14236D01*
X672348Y14173D01*
X671959Y14120D01*
X671568Y14077D01*
X671177Y14043D01*
X670785Y14019D01*
X670393Y14005D01*
X670000Y14000D01*
X669607Y14005D01*
X669215Y14019D01*
X668823Y14043D01*
X668432Y14077D01*
X668041Y14120D01*
X667652Y14173D01*
X667265Y14236D01*
X666879Y14307D01*
X666494Y14389D01*
X666112Y14479D01*
X665733Y14580D01*
X665355Y14689D01*
X664981Y14808D01*
X664610Y14935D01*
X664242Y15072D01*
X663877Y15218D01*
X663516Y15373D01*
X663159Y15536D01*
X662806Y15708D01*
X662458Y15889D01*
X662114Y16079D01*
X661774Y16276D01*
X661440Y16482D01*
X661111Y16696D01*
X660787Y16919D01*
X660469Y17149D01*
X660156Y17386D01*
X659850Y17632D01*
X659549Y17885D01*
X659255Y18145D01*
X658967Y18412D01*
X658686Y18686D01*
X658412Y18967D01*
X658145Y19255D01*
X657885Y19549D01*
X657632Y19850D01*
X657386Y20156D01*
X657149Y20469D01*
X656919Y20787D01*
X656696Y21111D01*
X656482Y21440D01*
X656276Y21774D01*
X656079Y22114D01*
X655889Y22458D01*
X655708Y22806D01*
X655536Y23159D01*
X655373Y23516D01*
X655218Y23877D01*
X655072Y24242D01*
X654935Y24610D01*
X654808Y24981D01*
X654689Y25355D01*
X654580Y25733D01*
X654479Y26112D01*
X654389Y26494D01*
X654307Y26879D01*
X654236Y27265D01*
X654173Y27652D01*
X654120Y28041D01*
X654077Y28432D01*
X654043Y28823D01*
X654019Y29215D01*
X654005Y29607D01*
X654000Y30000D01*
X14000Y370000D02*
X14005Y370393D01*
X14019Y370785D01*
X14043Y371177D01*
X14077Y371568D01*
X14120Y371959D01*
X14173Y372348D01*
X14236Y372735D01*
X14307Y373121D01*
X14389Y373506D01*
X14479Y373888D01*
X14580Y374267D01*
X14689Y374645D01*
X14808Y375019D01*
X14935Y375390D01*
X15072Y375758D01*
X15218Y376123D01*
X15373Y376484D01*
X15536Y376841D01*
X15708Y377194D01*
X15889Y377542D01*
X16079Y377886D01*
X16276Y378226D01*
X16482Y378560D01*
X16696Y378889D01*
X16919Y379213D01*
X17149Y379531D01*
X17386Y379844D01*
X17632Y380150D01*
X17885Y380451D01*
X18145Y380745D01*
X18412Y381033D01*
X18686Y381314D01*
X18967Y381588D01*
X19255Y381855D01*
X19549Y382115D01*
X19850Y382368D01*
X20156Y382614D01*
X20469Y382851D01*
X20787Y383081D01*
X21111Y383304D01*
X21440Y383518D01*
X21774Y383724D01*
X22114Y383921D01*
X22458Y384111D01*
X22806Y384292D01*
X23159Y384464D01*
X23516Y384627D01*
X23877Y384782D01*
X24242Y384928D01*
X24610Y385065D01*
X24981Y385192D01*
X25355Y385311D01*
X25733Y385420D01*
X26112Y385521D01*
X26494Y385611D01*
X26879Y385693D01*
X27265Y385764D01*
X27652Y385827D01*
X28041Y385880D01*
X28432Y385923D01*
X28823Y385957D01*
X29215Y385981D01*
X29607Y385995D01*
X30000Y386000D01*
X30393Y385995D01*
X30785Y385981D01*
X31177Y385957D01*
X31568Y385923D01*
X31959Y385880D01*
X32348Y385827D01*
X32735Y385764D01*
X33121Y385693D01*
X33506Y385611D01*
X33888Y385521D01*
X34267Y385420D01*
X34645Y385311D01*
X35019Y385192D01*
X35390Y385065D01*
X35758Y384928D01*
X36123Y384782D01*
X36484Y384627D01*
X36841Y384464D01*
X37194Y384292D01*
X37542Y384111D01*
X37886Y383921D01*
X38226Y383724D01*
X38560Y383518D01*
X38889Y383304D01*
X39213Y383081D01*
X39531Y382851D01*
X39844Y382614D01*
X40150Y382368D01*
X40451Y382115D01*
X40745Y381855D01*
X41033Y381588D01*
X41314Y381314D01*
X41588Y381033D01*
X41855Y380745D01*
X42115Y380451D01*
X42368Y380150D01*
X42614Y379844D01*
X42851Y379531D01*
X43081Y379213D01*
X43304Y378889D01*
X43518Y378560D01*
X43724Y378226D01*
X43921Y377886D01*
X44111Y377542D01*
X44292Y377194D01*
X44464Y376841D01*
X44627Y376484D01*
X44782Y376123D01*
X44928Y375758D01*
X45065Y375390D01*
X45192Y375019D01*
X45311Y374645D01*
X45420Y374267D01*
X45521Y373888D01*
X45611Y373506D01*
X45693Y373121D01*
X45764Y372735D01*
X45827Y372348D01*
X45880Y371959D01*
X45923Y371568D01*
X45957Y371177D01*
X45981Y370785D01*
X45995Y370393D01*
X46000Y370000D01*
X45995Y369607D01*
X45981Y369215D01*
X45957Y368823D01*
X45923Y368432D01*
X45880Y368041D01*
X45827Y367652D01*
X45764Y367265D01*
X45693Y366879D01*
X45611Y366494D01*
X45521Y366112D01*
X45420Y365733D01*
X45311Y365355D01*
X45192Y364981D01*
X45065Y364610D01*
X44928Y364242D01*
X44782Y363877D01*
X44627Y363516D01*
X44464Y363159D01*
X44292Y362806D01*
X44111Y362458D01*
X43921Y362114D01*
X43724Y361774D01*
X43518Y361440D01*
X43304Y361111D01*
X43081Y360787D01*
X42851Y360469D01*
X42614Y360156D01*
X42368Y359850D01*
X42115Y359549D01*
X41855Y359255D01*
X41588Y358967D01*
X41314Y358686D01*
X41033Y358412D01*
X40745Y358145D01*
X40451Y357885D01*
X40150Y357632D01*
X39844Y357386D01*
X39531Y357149D01*
X39213Y356919D01*
X38889Y356696D01*
X38560Y356482D01*
X38226Y356276D01*
X37886Y356079D01*
X37542Y355889D01*
X37194Y355708D01*
X36841Y355536D01*
X36484Y355373D01*
X36123Y355218D01*
X35758Y355072D01*
X35390Y354935D01*
X35019Y354808D01*
X34645Y354689D01*
X34267Y354580D01*
X33888Y354479D01*
X33506Y354389D01*
X33121Y354307D01*
X32735Y354236D01*
X32348Y354173D01*
X31959Y354120D01*
X31568Y354077D01*
X31177Y354043D01*
X30785Y354019D01*
X30393Y354005D01*
X30000Y354000D01*
X29607Y354005D01*
X29215Y354019D01*
X28823Y354043D01*
X28432Y354077D01*
X28041Y354120D01*
X27652Y354173D01*
X27265Y354236D01*
X26879Y354307D01*
X26494Y354389D01*
X26112Y354479D01*
X25733Y354580D01*
X25355Y354689D01*
X24981Y354808D01*
X24610Y354935D01*
X24242Y355072D01*
X23877Y355218D01*
X23516Y355373D01*
X23159Y355536D01*
X22806Y355708D01*
X22458Y355889D01*
X22114Y356079D01*
X21774Y356276D01*
X21440Y356482D01*
X21111Y356696D01*
X20787Y356919D01*
X20469Y357149D01*
X20156Y357386D01*
X19850Y357632D01*
X19549Y357885D01*
X19255Y358145D01*
X18967Y358412D01*
X18686Y358686D01*
X18412Y358967D01*
X18145Y359255D01*
X17885Y359549D01*
X17632Y359850D01*
X17386Y360156D01*
X17149Y360469D01*
X16919Y360787D01*
X16696Y361111D01*
X16482Y361440D01*
X16276Y361774D01*
X16079Y362114D01*
X15889Y362458D01*
X15708Y362806D01*
X15536Y363159D01*
X15373Y363516D01*
X15218Y363877D01*
X15072Y364242D01*
X14935Y364610D01*
X14808Y364981D01*
X14689Y365355D01*
X14580Y365733D01*
X14479Y366112D01*
X14389Y366494D01*
X14307Y366879D01*
X14236Y367265D01*
X14173Y367652D01*
X14120Y368041D01*
X14077Y368432D01*
X14043Y368823D01*
X14019Y369215D01*
X14005Y369607D01*
X14000Y370000D01*
X654000Y370000D02*
X654005Y370393D01*
X654019Y370785D01*
X654043Y371177D01*
X654077Y371568D01*
X654120Y371959D01*
X654173Y372348D01*
X654236Y372735D01*
X654307Y373121D01*
X654389Y373506D01*
X654479Y373888D01*
X654580Y374267D01*
X654689Y374645D01*
X654808Y375019D01*
X654935Y375390D01*
X655072Y375758D01*
X655218Y376123D01*
X655373Y376484D01*
X655536Y376841D01*
X655708Y377194D01*
X655889Y377542D01*
X656079Y377886D01*
X656276Y378226D01*
X656482Y378560D01*
X656696Y378889D01*
X656919Y379213D01*
X657149Y379531D01*
X657386Y379844D01*
X657632Y380150D01*
X657885Y380451D01*
X658145Y380745D01*
X658412Y381033D01*
X658686Y381314D01*
X658967Y381588D01*
X659255Y381855D01*
X659549Y382115D01*
X659850Y382368D01*
X660156Y382614D01*
X660469Y382851D01*
X660787Y383081D01*
X661111Y383304D01*
X661440Y383518D01*
X661774Y383724D01*
X662114Y383921D01*
X662458Y384111D01*
X662806Y384292D01*
X663159Y384464D01*
X663516Y384627D01*
X663877Y384782D01*
X664242Y384928D01*
X664610Y385065D01*
X664981Y385192D01*
X665355Y385311D01*
X665733Y385420D01*
X666112Y385521D01*
X666494Y385611D01*
X666879Y385693D01*
X667265Y385764D01*
X667652Y385827D01*
X668041Y385880D01*
X668432Y385923D01*
X668823Y385957D01*
X669215Y385981D01*
X669607Y385995D01*
X670000Y386000D01*
X670393Y385995D01*
X670785Y385981D01*
X671177Y385957D01*
X671568Y385923D01*
X671959Y385880D01*
X672348Y385827D01*
X672735Y385764D01*
X673121Y385693D01*
X673506Y385611D01*
X673888Y385521D01*
X674267Y385420D01*
X674645Y385311D01*
X675019Y385192D01*
X675390Y385065D01*
X675758Y384928D01*
X676123Y384782D01*
X676484Y384627D01*
X676841Y384464D01*
X677194Y384292D01*
X677542Y384111D01*
X677886Y383921D01*
X678226Y383724D01*
X678560Y383518D01*
X678889Y383304D01*
X679213Y383081D01*
X679531Y382851D01*
X679844Y382614D01*
X680150Y382368D01*
X680451Y382115D01*
X680745Y381855D01*
X681033Y381588D01*
X681314Y381314D01*
X681588Y381033D01*
X681855Y380745D01*
X682115Y380451D01*
X682368Y380150D01*
X682614Y379844D01*
X682851Y379531D01*
X683081Y379213D01*
X683304Y378889D01*
X683518Y378560D01*
X683724Y378226D01*
X683921Y377886D01*
X684111Y377542D01*
X684292Y377194D01*
X684464Y376841D01*
X684627Y376484D01*
X684782Y376123D01*
X684928Y375758D01*
X685065Y375390D01*
X685192Y375019D01*
X685311Y374645D01*
X685420Y374267D01*
X685521Y373888D01*
X685611Y373506D01*
X685693Y373121D01*
X685764Y372735D01*
X685827Y372348D01*
X685880Y371959D01*
X685923Y371568D01*
X685957Y371177D01*
X685981Y370785D01*
X685995Y370393D01*
X686000Y370000D01*
X685995Y369607D01*
X685981Y369215D01*
X685957Y368823D01*
X685923Y368432D01*
X685880Y368041D01*
X685827Y367652D01*
X685764Y367265D01*
X685693Y366879D01*
X685611Y366494D01*
X685521Y366112D01*
X685420Y365733D01*
X685311Y365355D01*
X685192Y364981D01*
X685065Y364610D01*
X684928Y364242D01*
X684782Y363877D01*
X684627Y363516D01*
X684464Y363159D01*
X684292Y362806D01*
X684111Y362458D01*
X683921Y362114D01*
X683724Y361774D01*
X683518Y361440D01*
X683304Y361111D01*
X683081Y360787D01*
X682851Y360469D01*
X682614Y360156D01*
X682368Y359850D01*
X682115Y359549D01*
X681855Y359255D01*
X681588Y358967D01*
X681314Y358686D01*
X681033Y358412D01*
X680745Y358145D01*
X680451Y357885D01*
X680150Y357632D01*
X679844Y357386D01*
X679531Y357149D01*
X679213Y356919D01*
X678889Y356696D01*
X678560Y356482D01*
X678226Y356276D01*
X677886Y356079D01*
X677542Y355889D01*
X677194Y355708D01*
X676841Y355536D01*
X676484Y355373D01*
X676123Y355218D01*
X675758Y355072D01*
X675390Y354935D01*
X675019Y354808D01*
X674645Y354689D01*
X674267Y354580D01*
X673888Y354479D01*
X673506Y354389D01*
X673121Y354307D01*
X672735Y354236D01*
X672348Y354173D01*
X671959Y354120D01*
X671568Y354077D01*
X671177Y354043D01*
X670785Y354019D01*
X670393Y354005D01*
X670000Y354000D01*
X669607Y354005D01*
X669215Y354019D01*
X668823Y354043D01*
X668432Y354077D01*
X668041Y354120D01*
X667652Y354173D01*
X667265Y354236D01*
X666879Y354307D01*
X666494Y354389D01*
X666112Y354479D01*
X665733Y354580D01*
X665355Y354689D01*
X664981Y354808D01*
X664610Y354935D01*
X664242Y355072D01*
X663877Y355218D01*
X663516Y355373D01*
X663159Y355536D01*
X662806Y355708D01*
X662458Y355889D01*
X662114Y356079D01*
X661774Y356276D01*
X661440Y356482D01*
X661111Y356696D01*
X660787Y356919D01*
X660469Y357149D01*
X660156Y357386D01*
X659850Y357632D01*
X659549Y357885D01*
X659255Y358145D01*
X658967Y358412D01*
X658686Y358686D01*
X658412Y358967D01*
X658145Y359255D01*
X657885Y359549D01*
X657632Y359850D01*
X657386Y360156D01*
X657149Y360469D01*
X656919Y360787D01*
X656696Y361111D01*
X656482Y361440D01*
X656276Y361774D01*
X656079Y362114D01*
X655889Y362458D01*
X655708Y362806D01*
X655536Y363159D01*
X655373Y363516D01*
X655218Y363877D01*
X655072Y364242D01*
X654935Y364610D01*
X654808Y364981D01*
X654689Y365355D01*
X654580Y365733D01*
X654479Y366112D01*
X654389Y366494D01*
X654307Y366879D01*
X654236Y367265D01*
X654173Y367652D01*
X654120Y368041D01*
X654077Y368432D01*
X654043Y368823D01*
X654019Y369215D01*
X654005Y369607D01*
X654000Y370000D01*
D11*
X283250Y283178D03*
X276750Y283178D03*
X270250Y283178D03*
X263750Y283178D03*
X257250Y283178D03*
X250750Y283178D03*
X244250Y283178D03*
X237750Y283178D03*
X231250Y283178D03*
X224750Y283178D03*
X224750Y224822D03*
X231250Y224822D03*
X237750Y224822D03*
X244250Y224822D03*
X250750Y224822D03*
X257250Y224822D03*
X263750Y224822D03*
X270250Y224822D03*
X276750Y224822D03*
X283250Y224822D03*
D12*
X215900Y116600D03*
X215900Y86600D03*
D13*
X142400Y74803D03*
X147400Y74803D03*
X152400Y74803D03*
X157400Y74803D03*
X162400Y74803D03*
X162400Y115697D03*
X157400Y115697D03*
X152400Y115697D03*
X147400Y115697D03*
X142400Y115697D03*
D14*
X165100Y35950D03*
X165100Y52950D03*
X139700Y35950D03*
X139700Y52950D03*
D15*
X101600Y92550D03*
X101600Y72550D03*
X190500Y111600D03*
X190500Y91600D03*
D16*
X167250Y139700D03*
X150250Y139700D03*
D17*
X559562Y339700D03*
X559562Y320700D03*
X583438Y330200D03*
X559562Y288900D03*
X559562Y269900D03*
X583438Y279400D03*
X559562Y238100D03*
X559562Y219100D03*
X583438Y228600D03*
X559562Y187300D03*
X559562Y168300D03*
X583438Y177800D03*
X559562Y136500D03*
X559562Y117500D03*
X583438Y127000D03*
D18*
X301600Y368300D03*
X282600Y368300D03*
X206400Y368300D03*
X225400Y368300D03*
D19*
X396100Y70842D03*
X419100Y70842D03*
X442100Y70842D03*
D20*
X419100Y132358D03*
D21*
X476250Y73050D03*
X476250Y92050D03*
X368300Y85700D03*
X368300Y66700D03*
X203200Y263500D03*
X203200Y244500D03*
X304800Y244500D03*
X304800Y263500D03*
D14*
X330200Y245500D03*
X330200Y262500D03*
D18*
X441300Y38100D03*
X422300Y38100D03*
D14*
X533400Y321700D03*
X533400Y338700D03*
D16*
X478400Y279400D03*
X461400Y279400D03*
D14*
X533400Y270900D03*
X533400Y287900D03*
D16*
X478400Y254000D03*
X461400Y254000D03*
D14*
X533400Y220100D03*
X533400Y237100D03*
D16*
X478400Y228600D03*
X461400Y228600D03*
D14*
X533400Y169300D03*
X533400Y186300D03*
D16*
X478400Y203200D03*
X461400Y203200D03*
D14*
X533400Y118500D03*
X533400Y135500D03*
D16*
X478400Y177800D03*
X461400Y177800D03*
D14*
X127000Y313300D03*
X127000Y296300D03*
D21*
X101600Y295300D03*
X101600Y314300D03*
X247650Y111100D03*
X247650Y92100D03*
M02*
