G04 EAGLE Gerber RS-274X export*
G75*
%MOMM*%
%FSLAX34Y34*%
%LPD*%
%INBottom layer*%
%IPPOS*%
%AMOC8*
5,1,8,0,0,1.08239X$1,22.5*%
G01*
%ADD10C,0.000000*%
%ADD11R,1.208000X1.208000*%
%ADD12C,1.208000*%
%ADD13C,1.308000*%
%ADD14R,1.308000X1.308000*%
%ADD15C,1.320800*%
%ADD16C,1.524000*%
%ADD17C,0.756400*%
%ADD18C,0.254000*%
%ADD19C,1.270000*%
%ADD20C,0.203200*%

G36*
X649916Y10178D02*
X649916Y10178D01*
X650055Y10191D01*
X650074Y10198D01*
X650094Y10201D01*
X650223Y10252D01*
X650354Y10299D01*
X650371Y10310D01*
X650389Y10318D01*
X650502Y10399D01*
X650617Y10477D01*
X650630Y10493D01*
X650647Y10504D01*
X650736Y10612D01*
X650827Y10716D01*
X650837Y10734D01*
X650850Y10749D01*
X650909Y10875D01*
X650972Y10999D01*
X650976Y11019D01*
X650985Y11037D01*
X651011Y11174D01*
X651042Y11309D01*
X651041Y11330D01*
X651045Y11349D01*
X651036Y11488D01*
X651032Y11627D01*
X651026Y11647D01*
X651025Y11667D01*
X650982Y11799D01*
X650944Y11933D01*
X650933Y11950D01*
X650927Y11969D01*
X650852Y12087D01*
X650782Y12207D01*
X650764Y12228D01*
X650757Y12238D01*
X650742Y12252D01*
X650676Y12327D01*
X649066Y13937D01*
X645622Y19902D01*
X643839Y26556D01*
X643839Y33444D01*
X645622Y40098D01*
X649066Y46063D01*
X653937Y50934D01*
X659902Y54378D01*
X666556Y56161D01*
X673444Y56161D01*
X680098Y54378D01*
X686063Y50934D01*
X687673Y49324D01*
X687782Y49239D01*
X687889Y49150D01*
X687908Y49142D01*
X687924Y49129D01*
X688052Y49074D01*
X688177Y49015D01*
X688197Y49011D01*
X688216Y49003D01*
X688354Y48981D01*
X688490Y48955D01*
X688510Y48956D01*
X688530Y48953D01*
X688669Y48966D01*
X688807Y48975D01*
X688826Y48981D01*
X688846Y48983D01*
X688978Y49030D01*
X689109Y49073D01*
X689127Y49084D01*
X689146Y49091D01*
X689261Y49169D01*
X689378Y49243D01*
X689392Y49258D01*
X689409Y49269D01*
X689501Y49373D01*
X689596Y49475D01*
X689606Y49492D01*
X689619Y49508D01*
X689683Y49632D01*
X689750Y49753D01*
X689755Y49773D01*
X689764Y49791D01*
X689794Y49927D01*
X689829Y50061D01*
X689831Y50089D01*
X689834Y50101D01*
X689833Y50122D01*
X689839Y50222D01*
X689839Y349778D01*
X689822Y349916D01*
X689809Y350055D01*
X689802Y350074D01*
X689799Y350094D01*
X689748Y350223D01*
X689701Y350354D01*
X689690Y350371D01*
X689682Y350389D01*
X689601Y350502D01*
X689523Y350617D01*
X689507Y350630D01*
X689496Y350647D01*
X689388Y350736D01*
X689284Y350827D01*
X689266Y350837D01*
X689251Y350850D01*
X689125Y350909D01*
X689001Y350972D01*
X688981Y350976D01*
X688963Y350985D01*
X688826Y351011D01*
X688691Y351042D01*
X688670Y351041D01*
X688651Y351045D01*
X688512Y351036D01*
X688373Y351032D01*
X688353Y351026D01*
X688333Y351025D01*
X688201Y350982D01*
X688067Y350944D01*
X688050Y350933D01*
X688031Y350927D01*
X687913Y350852D01*
X687793Y350782D01*
X687772Y350764D01*
X687762Y350757D01*
X687748Y350742D01*
X687673Y350676D01*
X686063Y349066D01*
X680098Y345622D01*
X673444Y343839D01*
X666556Y343839D01*
X659902Y345622D01*
X653937Y349066D01*
X649066Y353937D01*
X645622Y359902D01*
X643839Y366556D01*
X643839Y373444D01*
X645622Y380098D01*
X649066Y386063D01*
X650676Y387673D01*
X650761Y387782D01*
X650850Y387889D01*
X650858Y387908D01*
X650871Y387924D01*
X650926Y388052D01*
X650985Y388177D01*
X650989Y388197D01*
X650997Y388216D01*
X651019Y388354D01*
X651045Y388490D01*
X651044Y388510D01*
X651047Y388530D01*
X651034Y388669D01*
X651025Y388807D01*
X651019Y388826D01*
X651017Y388846D01*
X650970Y388978D01*
X650927Y389109D01*
X650916Y389127D01*
X650909Y389146D01*
X650831Y389261D01*
X650757Y389378D01*
X650742Y389392D01*
X650731Y389409D01*
X650627Y389501D01*
X650525Y389596D01*
X650508Y389606D01*
X650492Y389619D01*
X650368Y389683D01*
X650247Y389750D01*
X650227Y389755D01*
X650209Y389764D01*
X650073Y389794D01*
X649939Y389829D01*
X649911Y389831D01*
X649899Y389834D01*
X649878Y389833D01*
X649778Y389839D01*
X50222Y389839D01*
X50084Y389822D01*
X49945Y389809D01*
X49926Y389802D01*
X49906Y389799D01*
X49777Y389748D01*
X49646Y389701D01*
X49629Y389690D01*
X49611Y389682D01*
X49498Y389601D01*
X49383Y389523D01*
X49370Y389507D01*
X49353Y389496D01*
X49264Y389388D01*
X49173Y389284D01*
X49163Y389266D01*
X49150Y389251D01*
X49091Y389125D01*
X49028Y389001D01*
X49024Y388981D01*
X49015Y388963D01*
X48989Y388826D01*
X48958Y388691D01*
X48959Y388670D01*
X48955Y388651D01*
X48964Y388512D01*
X48968Y388373D01*
X48974Y388353D01*
X48975Y388333D01*
X49018Y388201D01*
X49056Y388067D01*
X49067Y388050D01*
X49073Y388031D01*
X49148Y387913D01*
X49218Y387793D01*
X49236Y387772D01*
X49243Y387762D01*
X49258Y387748D01*
X49324Y387673D01*
X50934Y386063D01*
X54378Y380098D01*
X56161Y373444D01*
X56161Y366556D01*
X54378Y359902D01*
X50934Y353937D01*
X46063Y349066D01*
X40098Y345622D01*
X33444Y343839D01*
X26556Y343839D01*
X19902Y345622D01*
X13937Y349066D01*
X12327Y350676D01*
X12218Y350761D01*
X12111Y350850D01*
X12092Y350858D01*
X12076Y350871D01*
X11948Y350926D01*
X11823Y350985D01*
X11803Y350989D01*
X11784Y350997D01*
X11646Y351019D01*
X11510Y351045D01*
X11490Y351044D01*
X11470Y351047D01*
X11331Y351034D01*
X11193Y351025D01*
X11174Y351019D01*
X11154Y351017D01*
X11022Y350970D01*
X10891Y350927D01*
X10873Y350916D01*
X10854Y350909D01*
X10739Y350831D01*
X10622Y350757D01*
X10608Y350742D01*
X10591Y350731D01*
X10499Y350627D01*
X10404Y350525D01*
X10394Y350508D01*
X10381Y350492D01*
X10317Y350368D01*
X10250Y350247D01*
X10245Y350227D01*
X10236Y350209D01*
X10206Y350073D01*
X10171Y349939D01*
X10169Y349911D01*
X10166Y349899D01*
X10167Y349878D01*
X10161Y349778D01*
X10161Y50222D01*
X10178Y50084D01*
X10191Y49945D01*
X10198Y49926D01*
X10201Y49906D01*
X10252Y49777D01*
X10299Y49646D01*
X10310Y49629D01*
X10318Y49611D01*
X10399Y49498D01*
X10477Y49383D01*
X10493Y49370D01*
X10504Y49353D01*
X10612Y49264D01*
X10716Y49173D01*
X10734Y49163D01*
X10749Y49150D01*
X10875Y49091D01*
X10999Y49028D01*
X11019Y49024D01*
X11037Y49015D01*
X11174Y48989D01*
X11309Y48958D01*
X11330Y48959D01*
X11349Y48955D01*
X11488Y48964D01*
X11627Y48968D01*
X11647Y48974D01*
X11667Y48975D01*
X11799Y49018D01*
X11933Y49056D01*
X11950Y49067D01*
X11969Y49073D01*
X12087Y49148D01*
X12207Y49218D01*
X12228Y49236D01*
X12238Y49243D01*
X12252Y49258D01*
X12327Y49324D01*
X13937Y50934D01*
X19902Y54378D01*
X26556Y56161D01*
X33444Y56161D01*
X40098Y54378D01*
X46063Y50934D01*
X50934Y46063D01*
X54378Y40098D01*
X56161Y33444D01*
X56161Y26556D01*
X54378Y19902D01*
X50934Y13937D01*
X49324Y12327D01*
X49239Y12218D01*
X49150Y12111D01*
X49142Y12092D01*
X49129Y12076D01*
X49074Y11948D01*
X49015Y11823D01*
X49011Y11803D01*
X49003Y11784D01*
X48981Y11646D01*
X48955Y11510D01*
X48956Y11490D01*
X48953Y11470D01*
X48966Y11331D01*
X48975Y11193D01*
X48981Y11174D01*
X48983Y11154D01*
X49030Y11022D01*
X49073Y10891D01*
X49084Y10873D01*
X49091Y10854D01*
X49169Y10739D01*
X49243Y10622D01*
X49258Y10608D01*
X49269Y10591D01*
X49373Y10499D01*
X49475Y10404D01*
X49492Y10394D01*
X49508Y10381D01*
X49632Y10317D01*
X49753Y10250D01*
X49773Y10245D01*
X49791Y10236D01*
X49927Y10206D01*
X50061Y10171D01*
X50089Y10169D01*
X50101Y10166D01*
X50122Y10167D01*
X50222Y10161D01*
X649778Y10161D01*
X649916Y10178D01*
G37*
%LPC*%
G36*
X315934Y93725D02*
X315934Y93725D01*
X313039Y94924D01*
X309912Y98051D01*
X309889Y98069D01*
X309870Y98092D01*
X309764Y98166D01*
X309661Y98246D01*
X309634Y98258D01*
X309610Y98275D01*
X309488Y98321D01*
X309369Y98373D01*
X309340Y98377D01*
X309312Y98388D01*
X309183Y98402D01*
X309055Y98422D01*
X309026Y98420D01*
X308996Y98423D01*
X308868Y98405D01*
X308738Y98393D01*
X308711Y98383D01*
X308681Y98378D01*
X308529Y98326D01*
X306619Y97535D01*
X302981Y97535D01*
X299620Y98927D01*
X297047Y101500D01*
X295655Y104861D01*
X295655Y123739D01*
X297047Y127100D01*
X299620Y129673D01*
X302981Y131065D01*
X306619Y131065D01*
X309980Y129673D01*
X312203Y127450D01*
X312297Y127377D01*
X312386Y127298D01*
X312422Y127280D01*
X312454Y127255D01*
X312563Y127208D01*
X312669Y127154D01*
X312709Y127145D01*
X312746Y127129D01*
X312863Y127110D01*
X312979Y127084D01*
X313020Y127085D01*
X313060Y127079D01*
X313178Y127090D01*
X313297Y127094D01*
X313336Y127105D01*
X313376Y127109D01*
X313489Y127149D01*
X313603Y127182D01*
X313638Y127203D01*
X313676Y127216D01*
X313774Y127283D01*
X313877Y127344D01*
X313922Y127383D01*
X313939Y127395D01*
X313952Y127410D01*
X313998Y127450D01*
X327034Y140486D01*
X327094Y140564D01*
X327162Y140636D01*
X327191Y140689D01*
X327228Y140737D01*
X327268Y140828D01*
X327316Y140915D01*
X327331Y140973D01*
X327355Y141029D01*
X327370Y141127D01*
X327395Y141223D01*
X327401Y141323D01*
X327405Y141343D01*
X327403Y141355D01*
X327405Y141383D01*
X327405Y286638D01*
X327393Y286736D01*
X327390Y286835D01*
X327373Y286894D01*
X327365Y286954D01*
X327329Y287046D01*
X327301Y287141D01*
X327271Y287193D01*
X327248Y287249D01*
X327190Y287329D01*
X327140Y287415D01*
X327074Y287490D01*
X327062Y287507D01*
X327052Y287514D01*
X327034Y287536D01*
X325701Y288868D01*
X324893Y290818D01*
X324893Y292703D01*
X324881Y292801D01*
X324878Y292900D01*
X324861Y292958D01*
X324853Y293018D01*
X324817Y293110D01*
X324789Y293205D01*
X324759Y293258D01*
X324736Y293314D01*
X324678Y293394D01*
X324628Y293479D01*
X324562Y293555D01*
X324550Y293571D01*
X324540Y293579D01*
X324522Y293600D01*
X322838Y295284D01*
X322760Y295344D01*
X322688Y295412D01*
X322635Y295441D01*
X322587Y295478D01*
X322496Y295518D01*
X322409Y295566D01*
X322351Y295581D01*
X322295Y295605D01*
X322197Y295620D01*
X322101Y295645D01*
X322001Y295651D01*
X321981Y295655D01*
X321969Y295653D01*
X321941Y295655D01*
X240186Y295655D01*
X240088Y295643D01*
X239989Y295640D01*
X239930Y295623D01*
X239870Y295615D01*
X239778Y295579D01*
X239683Y295551D01*
X239631Y295521D01*
X239575Y295498D01*
X239495Y295440D01*
X239409Y295390D01*
X239334Y295324D01*
X239317Y295312D01*
X239310Y295302D01*
X239288Y295284D01*
X237956Y293951D01*
X236006Y293143D01*
X233894Y293143D01*
X231944Y293951D01*
X230451Y295444D01*
X229643Y297394D01*
X229643Y299506D01*
X230451Y301456D01*
X231944Y302949D01*
X233894Y303757D01*
X236006Y303757D01*
X237956Y302949D01*
X239288Y301616D01*
X239367Y301556D01*
X239439Y301488D01*
X239492Y301459D01*
X239540Y301422D01*
X239631Y301382D01*
X239717Y301334D01*
X239776Y301319D01*
X239832Y301295D01*
X239929Y301280D01*
X240025Y301255D01*
X240125Y301249D01*
X240146Y301245D01*
X240158Y301247D01*
X240186Y301245D01*
X324782Y301245D01*
X325239Y300788D01*
X325348Y300703D01*
X325455Y300614D01*
X325474Y300605D01*
X325490Y300593D01*
X325618Y300538D01*
X325743Y300478D01*
X325763Y300475D01*
X325782Y300467D01*
X325920Y300445D01*
X326056Y300419D01*
X326076Y300420D01*
X326096Y300417D01*
X326235Y300430D01*
X326373Y300438D01*
X326392Y300445D01*
X326412Y300446D01*
X326543Y300494D01*
X326675Y300536D01*
X326693Y300547D01*
X326712Y300554D01*
X326826Y300632D01*
X326944Y300707D01*
X326958Y300721D01*
X326975Y300733D01*
X327067Y300837D01*
X327162Y300938D01*
X327172Y300956D01*
X327185Y300971D01*
X327248Y301095D01*
X327316Y301217D01*
X327321Y301236D01*
X327330Y301254D01*
X327360Y301390D01*
X327395Y301525D01*
X327397Y301553D01*
X327400Y301565D01*
X327399Y301585D01*
X327405Y301685D01*
X327405Y344058D01*
X341742Y358395D01*
X452008Y358395D01*
X465416Y344986D01*
X465494Y344926D01*
X465566Y344858D01*
X465619Y344829D01*
X465667Y344792D01*
X465758Y344752D01*
X465845Y344704D01*
X465903Y344689D01*
X465959Y344665D01*
X466057Y344650D01*
X466153Y344625D01*
X466253Y344619D01*
X466273Y344615D01*
X466285Y344617D01*
X466313Y344615D01*
X477072Y344615D01*
X477965Y343722D01*
X477965Y329378D01*
X477072Y328485D01*
X462728Y328485D01*
X461835Y329378D01*
X461835Y340137D01*
X461823Y340235D01*
X461820Y340334D01*
X461803Y340392D01*
X461795Y340452D01*
X461759Y340544D01*
X461731Y340639D01*
X461701Y340692D01*
X461678Y340748D01*
X461620Y340828D01*
X461570Y340913D01*
X461504Y340989D01*
X461492Y341005D01*
X461482Y341013D01*
X461464Y341034D01*
X450064Y352434D01*
X449986Y352494D01*
X449914Y352562D01*
X449861Y352591D01*
X449813Y352628D01*
X449722Y352668D01*
X449635Y352716D01*
X449577Y352731D01*
X449521Y352755D01*
X449423Y352770D01*
X449327Y352795D01*
X449227Y352801D01*
X449207Y352805D01*
X449195Y352803D01*
X449167Y352805D01*
X344583Y352805D01*
X344485Y352793D01*
X344386Y352790D01*
X344328Y352773D01*
X344268Y352765D01*
X344176Y352729D01*
X344081Y352701D01*
X344028Y352671D01*
X343972Y352648D01*
X343892Y352590D01*
X343807Y352540D01*
X343731Y352474D01*
X343715Y352462D01*
X343707Y352452D01*
X343686Y352434D01*
X333366Y342114D01*
X333306Y342036D01*
X333238Y341964D01*
X333209Y341911D01*
X333172Y341863D01*
X333132Y341772D01*
X333084Y341685D01*
X333069Y341627D01*
X333045Y341571D01*
X333030Y341473D01*
X333005Y341377D01*
X332999Y341277D01*
X332995Y341257D01*
X332997Y341245D01*
X332995Y341217D01*
X332995Y297110D01*
X333007Y297012D01*
X333010Y296913D01*
X333027Y296854D01*
X333035Y296794D01*
X333071Y296702D01*
X333099Y296607D01*
X333129Y296555D01*
X333152Y296499D01*
X333210Y296419D01*
X333260Y296333D01*
X333326Y296258D01*
X333338Y296241D01*
X333348Y296234D01*
X333366Y296212D01*
X334699Y294880D01*
X335507Y292930D01*
X335507Y290818D01*
X334699Y288868D01*
X333366Y287536D01*
X333306Y287457D01*
X333238Y287385D01*
X333209Y287332D01*
X333172Y287284D01*
X333132Y287193D01*
X333084Y287107D01*
X333069Y287048D01*
X333045Y286992D01*
X333030Y286895D01*
X333005Y286799D01*
X332999Y286699D01*
X332995Y286678D01*
X332997Y286666D01*
X332995Y286638D01*
X332995Y138542D01*
X314316Y119864D01*
X314256Y119786D01*
X314188Y119714D01*
X314159Y119661D01*
X314122Y119613D01*
X314082Y119522D01*
X314034Y119435D01*
X314019Y119377D01*
X313995Y119321D01*
X313980Y119223D01*
X313955Y119127D01*
X313949Y119027D01*
X313945Y119007D01*
X313947Y118995D01*
X313945Y118967D01*
X313945Y116818D01*
X313957Y116719D01*
X313960Y116620D01*
X313977Y116562D01*
X313985Y116502D01*
X314021Y116410D01*
X314049Y116315D01*
X314079Y116263D01*
X314102Y116206D01*
X314160Y116126D01*
X314210Y116041D01*
X314276Y115966D01*
X314288Y115949D01*
X314298Y115941D01*
X314316Y115920D01*
X320390Y109846D01*
X320468Y109786D01*
X320540Y109718D01*
X320593Y109689D01*
X320641Y109652D01*
X320732Y109612D01*
X320819Y109564D01*
X320878Y109549D01*
X320933Y109525D01*
X321031Y109510D01*
X321127Y109485D01*
X321227Y109479D01*
X321247Y109475D01*
X321260Y109477D01*
X321288Y109475D01*
X624862Y109475D01*
X624961Y109487D01*
X625060Y109490D01*
X625118Y109507D01*
X625178Y109515D01*
X625270Y109551D01*
X625365Y109579D01*
X625417Y109609D01*
X625474Y109632D01*
X625554Y109690D01*
X625639Y109740D01*
X625714Y109806D01*
X625731Y109818D01*
X625739Y109828D01*
X625760Y109846D01*
X627064Y111150D01*
X627124Y111228D01*
X627192Y111300D01*
X627221Y111353D01*
X627258Y111401D01*
X627298Y111492D01*
X627346Y111579D01*
X627361Y111638D01*
X627385Y111693D01*
X627400Y111791D01*
X627425Y111887D01*
X627431Y111987D01*
X627435Y112007D01*
X627433Y112020D01*
X627435Y112048D01*
X627435Y114622D01*
X628328Y115515D01*
X632433Y115515D01*
X632442Y115516D01*
X632451Y115515D01*
X632600Y115536D01*
X632748Y115555D01*
X632757Y115558D01*
X632766Y115559D01*
X632918Y115611D01*
X633434Y115825D01*
X650262Y115825D01*
X650361Y115837D01*
X650460Y115840D01*
X650518Y115857D01*
X650578Y115865D01*
X650670Y115901D01*
X650765Y115929D01*
X650817Y115959D01*
X650874Y115982D01*
X650954Y116040D01*
X651039Y116090D01*
X651114Y116156D01*
X651131Y116168D01*
X651139Y116178D01*
X651160Y116196D01*
X652154Y117190D01*
X652214Y117268D01*
X652282Y117340D01*
X652311Y117393D01*
X652348Y117441D01*
X652388Y117532D01*
X652436Y117619D01*
X652451Y117678D01*
X652475Y117733D01*
X652490Y117831D01*
X652515Y117927D01*
X652521Y118027D01*
X652525Y118047D01*
X652523Y118060D01*
X652525Y118088D01*
X652525Y168656D01*
X652510Y168774D01*
X652503Y168893D01*
X652490Y168931D01*
X652485Y168972D01*
X652442Y169082D01*
X652405Y169195D01*
X652383Y169230D01*
X652368Y169267D01*
X652299Y169363D01*
X652235Y169464D01*
X652205Y169492D01*
X652182Y169525D01*
X652090Y169601D01*
X652003Y169682D01*
X651968Y169702D01*
X651937Y169727D01*
X651829Y169778D01*
X651725Y169836D01*
X651685Y169846D01*
X651649Y169863D01*
X651532Y169885D01*
X651417Y169915D01*
X651357Y169919D01*
X651337Y169923D01*
X651316Y169921D01*
X651256Y169925D01*
X633434Y169925D01*
X632919Y170139D01*
X632910Y170141D01*
X632901Y170146D01*
X632757Y170183D01*
X632612Y170223D01*
X632602Y170223D01*
X632593Y170225D01*
X632433Y170235D01*
X628328Y170235D01*
X627435Y171128D01*
X627435Y175233D01*
X627434Y175242D01*
X627435Y175251D01*
X627414Y175400D01*
X627395Y175548D01*
X627392Y175557D01*
X627391Y175566D01*
X627339Y175719D01*
X627125Y176234D01*
X627125Y179366D01*
X627339Y179881D01*
X627341Y179890D01*
X627346Y179899D01*
X627383Y180043D01*
X627423Y180188D01*
X627423Y180198D01*
X627425Y180207D01*
X627435Y180367D01*
X627435Y184472D01*
X628328Y185365D01*
X632433Y185365D01*
X632442Y185366D01*
X632451Y185365D01*
X632600Y185386D01*
X632748Y185405D01*
X632757Y185408D01*
X632766Y185409D01*
X632919Y185461D01*
X633434Y185675D01*
X651256Y185675D01*
X651374Y185690D01*
X651493Y185697D01*
X651531Y185710D01*
X651572Y185715D01*
X651682Y185758D01*
X651795Y185795D01*
X651830Y185817D01*
X651867Y185832D01*
X651963Y185901D01*
X652064Y185965D01*
X652092Y185995D01*
X652125Y186018D01*
X652201Y186110D01*
X652282Y186197D01*
X652302Y186232D01*
X652327Y186263D01*
X652378Y186371D01*
X652436Y186475D01*
X652446Y186515D01*
X652463Y186551D01*
X652485Y186668D01*
X652515Y186783D01*
X652519Y186843D01*
X652523Y186863D01*
X652521Y186884D01*
X652525Y186944D01*
X652525Y238506D01*
X652510Y238624D01*
X652503Y238743D01*
X652490Y238781D01*
X652485Y238822D01*
X652442Y238932D01*
X652405Y239045D01*
X652383Y239080D01*
X652368Y239117D01*
X652299Y239213D01*
X652235Y239314D01*
X652205Y239342D01*
X652182Y239375D01*
X652090Y239451D01*
X652003Y239532D01*
X651968Y239552D01*
X651937Y239577D01*
X651829Y239628D01*
X651725Y239686D01*
X651685Y239696D01*
X651649Y239713D01*
X651532Y239735D01*
X651417Y239765D01*
X651357Y239769D01*
X651337Y239773D01*
X651316Y239771D01*
X651256Y239775D01*
X633434Y239775D01*
X632918Y239989D01*
X632910Y239991D01*
X632901Y239996D01*
X632756Y240033D01*
X632612Y240073D01*
X632602Y240073D01*
X632593Y240075D01*
X632433Y240085D01*
X628328Y240085D01*
X627435Y240978D01*
X627435Y245083D01*
X627434Y245092D01*
X627435Y245101D01*
X627414Y245250D01*
X627395Y245398D01*
X627392Y245407D01*
X627391Y245416D01*
X627339Y245568D01*
X627125Y246084D01*
X627125Y249216D01*
X627339Y249732D01*
X627341Y249740D01*
X627346Y249749D01*
X627383Y249894D01*
X627423Y250038D01*
X627423Y250048D01*
X627425Y250057D01*
X627435Y250217D01*
X627435Y254322D01*
X628328Y255215D01*
X632433Y255215D01*
X632442Y255216D01*
X632451Y255215D01*
X632600Y255236D01*
X632748Y255255D01*
X632757Y255258D01*
X632766Y255259D01*
X632918Y255311D01*
X633434Y255525D01*
X651256Y255525D01*
X651374Y255540D01*
X651493Y255547D01*
X651531Y255560D01*
X651572Y255565D01*
X651682Y255608D01*
X651795Y255645D01*
X651830Y255667D01*
X651867Y255682D01*
X651963Y255751D01*
X652064Y255815D01*
X652092Y255845D01*
X652125Y255868D01*
X652201Y255960D01*
X652282Y256047D01*
X652302Y256082D01*
X652327Y256113D01*
X652378Y256221D01*
X652436Y256325D01*
X652446Y256365D01*
X652463Y256401D01*
X652485Y256518D01*
X652515Y256633D01*
X652519Y256693D01*
X652523Y256713D01*
X652521Y256734D01*
X652525Y256794D01*
X652525Y307362D01*
X652513Y307461D01*
X652510Y307560D01*
X652493Y307618D01*
X652485Y307678D01*
X652449Y307770D01*
X652421Y307865D01*
X652391Y307917D01*
X652368Y307974D01*
X652310Y308054D01*
X652260Y308139D01*
X652194Y308214D01*
X652182Y308231D01*
X652172Y308239D01*
X652154Y308260D01*
X651160Y309254D01*
X651082Y309314D01*
X651010Y309382D01*
X650957Y309411D01*
X650909Y309448D01*
X650818Y309488D01*
X650731Y309536D01*
X650672Y309551D01*
X650617Y309575D01*
X650519Y309590D01*
X650423Y309615D01*
X650323Y309621D01*
X650303Y309625D01*
X650290Y309623D01*
X650262Y309625D01*
X633434Y309625D01*
X632918Y309839D01*
X632910Y309841D01*
X632901Y309846D01*
X632756Y309883D01*
X632612Y309923D01*
X632602Y309923D01*
X632593Y309925D01*
X632433Y309935D01*
X628328Y309935D01*
X627435Y310828D01*
X627435Y314933D01*
X627434Y314942D01*
X627435Y314951D01*
X627414Y315100D01*
X627395Y315248D01*
X627392Y315257D01*
X627391Y315266D01*
X627339Y315418D01*
X627125Y315934D01*
X627125Y319066D01*
X627339Y319582D01*
X627341Y319590D01*
X627346Y319599D01*
X627383Y319744D01*
X627423Y319888D01*
X627423Y319898D01*
X627425Y319907D01*
X627435Y320067D01*
X627435Y324172D01*
X628328Y325065D01*
X632433Y325065D01*
X632442Y325066D01*
X632451Y325065D01*
X632600Y325086D01*
X632748Y325105D01*
X632757Y325108D01*
X632766Y325109D01*
X632918Y325161D01*
X633434Y325375D01*
X655616Y325375D01*
X658511Y324176D01*
X667076Y315611D01*
X668275Y312716D01*
X668275Y112734D01*
X667076Y109839D01*
X658511Y101274D01*
X655616Y100075D01*
X638788Y100075D01*
X638689Y100063D01*
X638590Y100060D01*
X638532Y100043D01*
X638472Y100035D01*
X638380Y99999D01*
X638285Y99971D01*
X638233Y99941D01*
X638176Y99918D01*
X638096Y99860D01*
X638011Y99810D01*
X637936Y99744D01*
X637919Y99732D01*
X637911Y99722D01*
X637890Y99704D01*
X633111Y94924D01*
X630216Y93725D01*
X315934Y93725D01*
G37*
%LPD*%
%LPC*%
G36*
X152920Y123587D02*
X152920Y123587D01*
X150970Y124395D01*
X149477Y125888D01*
X148669Y127838D01*
X148669Y130082D01*
X148657Y130180D01*
X148654Y130279D01*
X148637Y130337D01*
X148629Y130397D01*
X148593Y130489D01*
X148565Y130585D01*
X148535Y130637D01*
X148512Y130693D01*
X148454Y130773D01*
X148404Y130859D01*
X148338Y130934D01*
X148326Y130950D01*
X148316Y130958D01*
X148298Y130979D01*
X86359Y192918D01*
X86359Y233372D01*
X86347Y233470D01*
X86344Y233569D01*
X86327Y233627D01*
X86319Y233687D01*
X86283Y233779D01*
X86255Y233875D01*
X86225Y233927D01*
X86202Y233983D01*
X86144Y234063D01*
X86094Y234148D01*
X86028Y234224D01*
X86016Y234240D01*
X86006Y234248D01*
X85988Y234269D01*
X81869Y238388D01*
X81791Y238448D01*
X81719Y238516D01*
X81666Y238545D01*
X81618Y238582D01*
X81527Y238622D01*
X81440Y238670D01*
X81382Y238685D01*
X81326Y238709D01*
X81228Y238724D01*
X81133Y238749D01*
X81032Y238755D01*
X81012Y238759D01*
X81000Y238757D01*
X80972Y238759D01*
X72025Y238759D01*
X71996Y238756D01*
X71966Y238758D01*
X71838Y238736D01*
X71709Y238719D01*
X71682Y238709D01*
X71653Y238704D01*
X71534Y238650D01*
X71414Y238602D01*
X71390Y238585D01*
X71363Y238573D01*
X71261Y238492D01*
X71156Y238416D01*
X71137Y238393D01*
X71114Y238374D01*
X71036Y238271D01*
X70954Y238171D01*
X70941Y238144D01*
X70923Y238120D01*
X70852Y237976D01*
X70337Y236732D01*
X68068Y234463D01*
X65104Y233235D01*
X61896Y233235D01*
X58932Y234463D01*
X56663Y236732D01*
X55435Y239696D01*
X55435Y242904D01*
X56663Y245868D01*
X58932Y248137D01*
X61896Y249365D01*
X65104Y249365D01*
X68068Y248137D01*
X70337Y245868D01*
X70852Y244624D01*
X70867Y244599D01*
X70876Y244571D01*
X70945Y244461D01*
X71010Y244348D01*
X71030Y244327D01*
X71046Y244302D01*
X71141Y244213D01*
X71231Y244120D01*
X71256Y244104D01*
X71278Y244084D01*
X71392Y244021D01*
X71502Y243953D01*
X71530Y243945D01*
X71556Y243930D01*
X71682Y243898D01*
X71806Y243860D01*
X71836Y243858D01*
X71864Y243851D01*
X72025Y243841D01*
X83602Y243841D01*
X91441Y236002D01*
X91441Y195548D01*
X91453Y195450D01*
X91456Y195351D01*
X91473Y195293D01*
X91481Y195233D01*
X91517Y195141D01*
X91545Y195045D01*
X91575Y194993D01*
X91598Y194937D01*
X91656Y194857D01*
X91706Y194772D01*
X91772Y194696D01*
X91784Y194680D01*
X91794Y194672D01*
X91812Y194651D01*
X151891Y134573D01*
X151969Y134512D01*
X152041Y134444D01*
X152094Y134415D01*
X152142Y134378D01*
X152233Y134338D01*
X152320Y134290D01*
X152378Y134275D01*
X152434Y134251D01*
X152532Y134236D01*
X152627Y134211D01*
X152728Y134205D01*
X152748Y134201D01*
X152760Y134203D01*
X152788Y134201D01*
X155032Y134201D01*
X156982Y133393D01*
X158475Y131900D01*
X159283Y129950D01*
X159283Y127838D01*
X158475Y125888D01*
X156982Y124395D01*
X155032Y123587D01*
X152920Y123587D01*
G37*
%LPD*%
%LPC*%
G36*
X373594Y185193D02*
X373594Y185193D01*
X371644Y186001D01*
X370151Y187494D01*
X369343Y189444D01*
X369343Y191556D01*
X370151Y193506D01*
X371484Y194838D01*
X371544Y194917D01*
X371612Y194989D01*
X371641Y195042D01*
X371678Y195090D01*
X371718Y195181D01*
X371766Y195267D01*
X371781Y195326D01*
X371805Y195382D01*
X371820Y195479D01*
X371845Y195575D01*
X371851Y195675D01*
X371855Y195696D01*
X371853Y195708D01*
X371855Y195736D01*
X371855Y318614D01*
X371843Y318712D01*
X371840Y318811D01*
X371823Y318870D01*
X371815Y318930D01*
X371779Y319022D01*
X371751Y319117D01*
X371721Y319169D01*
X371698Y319225D01*
X371640Y319305D01*
X371590Y319391D01*
X371524Y319466D01*
X371512Y319483D01*
X371502Y319490D01*
X371484Y319512D01*
X370151Y320844D01*
X369343Y322794D01*
X369343Y324906D01*
X370151Y326856D01*
X371644Y328349D01*
X373594Y329157D01*
X375706Y329157D01*
X377656Y328349D01*
X379149Y326856D01*
X379957Y324906D01*
X379957Y322794D01*
X379149Y320844D01*
X377816Y319512D01*
X377756Y319433D01*
X377688Y319361D01*
X377659Y319308D01*
X377622Y319260D01*
X377582Y319169D01*
X377534Y319083D01*
X377519Y319024D01*
X377495Y318968D01*
X377480Y318871D01*
X377455Y318775D01*
X377449Y318676D01*
X377447Y318669D01*
X377447Y318667D01*
X377445Y318654D01*
X377447Y318642D01*
X377445Y318614D01*
X377445Y195736D01*
X377457Y195638D01*
X377460Y195539D01*
X377477Y195480D01*
X377485Y195420D01*
X377521Y195328D01*
X377549Y195233D01*
X377579Y195181D01*
X377602Y195125D01*
X377660Y195045D01*
X377710Y194959D01*
X377776Y194884D01*
X377788Y194867D01*
X377798Y194860D01*
X377816Y194838D01*
X379149Y193506D01*
X379957Y191556D01*
X379957Y189444D01*
X379149Y187494D01*
X377656Y186001D01*
X375706Y185193D01*
X373594Y185193D01*
G37*
%LPD*%
%LPC*%
G36*
X437094Y172493D02*
X437094Y172493D01*
X435144Y173301D01*
X433651Y174794D01*
X432843Y176744D01*
X432843Y178856D01*
X433651Y180806D01*
X434984Y182138D01*
X435044Y182217D01*
X435112Y182289D01*
X435141Y182342D01*
X435178Y182390D01*
X435218Y182481D01*
X435266Y182567D01*
X435281Y182626D01*
X435305Y182682D01*
X435320Y182779D01*
X435345Y182875D01*
X435351Y182975D01*
X435355Y182996D01*
X435353Y183008D01*
X435355Y183036D01*
X435355Y305914D01*
X435343Y306012D01*
X435340Y306111D01*
X435323Y306170D01*
X435315Y306230D01*
X435279Y306322D01*
X435251Y306417D01*
X435221Y306469D01*
X435198Y306525D01*
X435140Y306605D01*
X435090Y306691D01*
X435024Y306766D01*
X435012Y306783D01*
X435002Y306790D01*
X434984Y306812D01*
X433651Y308144D01*
X432843Y310094D01*
X432843Y312206D01*
X433651Y314156D01*
X435144Y315649D01*
X437094Y316457D01*
X439206Y316457D01*
X441156Y315649D01*
X442649Y314156D01*
X443457Y312206D01*
X443457Y310094D01*
X442649Y308144D01*
X441316Y306812D01*
X441256Y306733D01*
X441188Y306661D01*
X441159Y306608D01*
X441122Y306560D01*
X441082Y306469D01*
X441034Y306383D01*
X441019Y306324D01*
X440995Y306268D01*
X440980Y306171D01*
X440955Y306075D01*
X440949Y305987D01*
X440947Y305976D01*
X440948Y305969D01*
X440945Y305954D01*
X440947Y305942D01*
X440945Y305914D01*
X440945Y183036D01*
X440957Y182938D01*
X440960Y182839D01*
X440977Y182780D01*
X440985Y182720D01*
X441021Y182628D01*
X441049Y182533D01*
X441079Y182481D01*
X441102Y182425D01*
X441160Y182345D01*
X441210Y182259D01*
X441276Y182184D01*
X441288Y182167D01*
X441298Y182160D01*
X441316Y182138D01*
X442649Y180806D01*
X443457Y178856D01*
X443457Y176744D01*
X442649Y174794D01*
X441156Y173301D01*
X439206Y172493D01*
X437094Y172493D01*
G37*
%LPD*%
%LPC*%
G36*
X424394Y197893D02*
X424394Y197893D01*
X422444Y198701D01*
X420951Y200194D01*
X420143Y202144D01*
X420143Y204256D01*
X420951Y206206D01*
X422284Y207538D01*
X422344Y207617D01*
X422412Y207689D01*
X422441Y207742D01*
X422478Y207790D01*
X422518Y207881D01*
X422566Y207967D01*
X422581Y208026D01*
X422605Y208082D01*
X422620Y208179D01*
X422645Y208275D01*
X422651Y208375D01*
X422655Y208396D01*
X422653Y208408D01*
X422655Y208436D01*
X422655Y299564D01*
X422643Y299662D01*
X422640Y299761D01*
X422633Y299785D01*
X422633Y299787D01*
X422629Y299799D01*
X422623Y299820D01*
X422615Y299880D01*
X422579Y299972D01*
X422551Y300067D01*
X422521Y300119D01*
X422498Y300175D01*
X422440Y300255D01*
X422390Y300341D01*
X422324Y300416D01*
X422312Y300433D01*
X422302Y300440D01*
X422284Y300462D01*
X420951Y301794D01*
X420143Y303744D01*
X420143Y305856D01*
X420951Y307806D01*
X422444Y309299D01*
X424394Y310107D01*
X426506Y310107D01*
X428456Y309299D01*
X429949Y307806D01*
X430757Y305856D01*
X430757Y303744D01*
X429949Y301794D01*
X428616Y300462D01*
X428556Y300383D01*
X428488Y300311D01*
X428459Y300258D01*
X428422Y300210D01*
X428382Y300119D01*
X428334Y300033D01*
X428319Y299974D01*
X428295Y299918D01*
X428280Y299821D01*
X428255Y299725D01*
X428250Y299643D01*
X428247Y299630D01*
X428248Y299620D01*
X428245Y299604D01*
X428247Y299592D01*
X428245Y299564D01*
X428245Y208436D01*
X428257Y208338D01*
X428260Y208239D01*
X428277Y208180D01*
X428285Y208120D01*
X428321Y208028D01*
X428349Y207933D01*
X428379Y207881D01*
X428402Y207825D01*
X428460Y207745D01*
X428510Y207659D01*
X428576Y207584D01*
X428588Y207567D01*
X428598Y207560D01*
X428616Y207538D01*
X429949Y206206D01*
X430757Y204256D01*
X430757Y202144D01*
X429949Y200194D01*
X428456Y198701D01*
X426506Y197893D01*
X424394Y197893D01*
G37*
%LPD*%
%LPC*%
G36*
X360894Y242343D02*
X360894Y242343D01*
X358944Y243151D01*
X357451Y244644D01*
X356643Y246594D01*
X356643Y248706D01*
X357451Y250656D01*
X358784Y251988D01*
X358844Y252067D01*
X358912Y252139D01*
X358941Y252192D01*
X358978Y252240D01*
X359018Y252330D01*
X359066Y252417D01*
X359081Y252476D01*
X359105Y252531D01*
X359120Y252629D01*
X359145Y252725D01*
X359151Y252825D01*
X359155Y252846D01*
X359153Y252858D01*
X359155Y252886D01*
X359155Y331314D01*
X359143Y331412D01*
X359140Y331511D01*
X359123Y331570D01*
X359115Y331630D01*
X359079Y331722D01*
X359051Y331817D01*
X359021Y331869D01*
X358998Y331925D01*
X358940Y332005D01*
X358890Y332091D01*
X358824Y332166D01*
X358812Y332183D01*
X358802Y332190D01*
X358784Y332212D01*
X357451Y333544D01*
X356643Y335494D01*
X356643Y337606D01*
X357451Y339556D01*
X358944Y341049D01*
X360894Y341857D01*
X363006Y341857D01*
X364956Y341049D01*
X366449Y339556D01*
X367257Y337606D01*
X367257Y335494D01*
X366449Y333544D01*
X365116Y332212D01*
X365056Y332133D01*
X364988Y332061D01*
X364959Y332008D01*
X364922Y331960D01*
X364882Y331869D01*
X364834Y331783D01*
X364819Y331724D01*
X364795Y331668D01*
X364780Y331571D01*
X364755Y331475D01*
X364749Y331375D01*
X364745Y331354D01*
X364747Y331342D01*
X364745Y331314D01*
X364745Y252886D01*
X364757Y252788D01*
X364760Y252689D01*
X364777Y252630D01*
X364785Y252570D01*
X364821Y252478D01*
X364849Y252383D01*
X364879Y252331D01*
X364902Y252275D01*
X364960Y252194D01*
X365010Y252109D01*
X365076Y252034D01*
X365088Y252017D01*
X365098Y252009D01*
X365116Y251988D01*
X366449Y250656D01*
X367257Y248706D01*
X367257Y246594D01*
X366449Y244644D01*
X364956Y243151D01*
X363006Y242343D01*
X360894Y242343D01*
G37*
%LPD*%
%LPC*%
G36*
X386294Y197667D02*
X386294Y197667D01*
X384344Y198475D01*
X382851Y199968D01*
X382043Y201918D01*
X382043Y204030D01*
X382851Y205980D01*
X384184Y207312D01*
X384244Y207391D01*
X384312Y207463D01*
X384341Y207516D01*
X384378Y207564D01*
X384418Y207655D01*
X384466Y207741D01*
X384481Y207800D01*
X384505Y207856D01*
X384520Y207953D01*
X384545Y208049D01*
X384551Y208149D01*
X384555Y208170D01*
X384553Y208182D01*
X384555Y208210D01*
X384555Y274164D01*
X384543Y274262D01*
X384540Y274361D01*
X384533Y274383D01*
X384532Y274402D01*
X384521Y274437D01*
X384515Y274480D01*
X384479Y274572D01*
X384451Y274667D01*
X384440Y274686D01*
X384434Y274704D01*
X384414Y274737D01*
X384398Y274775D01*
X384340Y274855D01*
X384290Y274941D01*
X384270Y274963D01*
X384264Y274973D01*
X384250Y274986D01*
X384224Y275016D01*
X384212Y275033D01*
X384202Y275040D01*
X384184Y275062D01*
X382851Y276394D01*
X382043Y278344D01*
X382043Y280456D01*
X382851Y282406D01*
X384344Y283899D01*
X386294Y284707D01*
X388406Y284707D01*
X390356Y283899D01*
X391849Y282406D01*
X392657Y280456D01*
X392657Y278344D01*
X391849Y276394D01*
X390516Y275062D01*
X390456Y274983D01*
X390388Y274911D01*
X390368Y274875D01*
X390343Y274845D01*
X390335Y274827D01*
X390322Y274810D01*
X390282Y274719D01*
X390234Y274633D01*
X390224Y274592D01*
X390208Y274558D01*
X390204Y274539D01*
X390195Y274518D01*
X390180Y274421D01*
X390155Y274325D01*
X390151Y274261D01*
X390148Y274245D01*
X390149Y274230D01*
X390149Y274225D01*
X390145Y274204D01*
X390147Y274192D01*
X390145Y274164D01*
X390145Y208210D01*
X390157Y208112D01*
X390160Y208013D01*
X390177Y207954D01*
X390185Y207894D01*
X390221Y207802D01*
X390249Y207707D01*
X390279Y207655D01*
X390302Y207599D01*
X390360Y207519D01*
X390410Y207433D01*
X390476Y207358D01*
X390488Y207341D01*
X390498Y207334D01*
X390516Y207312D01*
X391849Y205980D01*
X392657Y204030D01*
X392657Y201918D01*
X391849Y199968D01*
X390356Y198475D01*
X388406Y197667D01*
X386294Y197667D01*
G37*
%LPD*%
%LPC*%
G36*
X277581Y97535D02*
X277581Y97535D01*
X274220Y98927D01*
X271647Y101500D01*
X270255Y104861D01*
X270255Y123739D01*
X271647Y127100D01*
X274220Y129673D01*
X277581Y131065D01*
X281219Y131065D01*
X284580Y129673D01*
X287153Y127100D01*
X288545Y123739D01*
X288545Y104861D01*
X287153Y101500D01*
X284580Y98927D01*
X281219Y97535D01*
X277581Y97535D01*
G37*
%LPD*%
%LPC*%
G36*
X411694Y223293D02*
X411694Y223293D01*
X409744Y224101D01*
X408251Y225594D01*
X407443Y227544D01*
X407443Y229656D01*
X408251Y231606D01*
X409584Y232938D01*
X409644Y233017D01*
X409712Y233089D01*
X409741Y233142D01*
X409778Y233190D01*
X409818Y233281D01*
X409866Y233367D01*
X409881Y233426D01*
X409905Y233482D01*
X409920Y233579D01*
X409945Y233675D01*
X409951Y233775D01*
X409955Y233796D01*
X409953Y233808D01*
X409955Y233836D01*
X409955Y293214D01*
X409943Y293312D01*
X409940Y293411D01*
X409933Y293434D01*
X409933Y293440D01*
X409923Y293472D01*
X409915Y293530D01*
X409879Y293622D01*
X409851Y293717D01*
X409821Y293769D01*
X409798Y293825D01*
X409740Y293905D01*
X409690Y293991D01*
X409624Y294066D01*
X409612Y294083D01*
X409602Y294090D01*
X409584Y294112D01*
X408251Y295444D01*
X407443Y297394D01*
X407443Y299506D01*
X408251Y301456D01*
X409744Y302949D01*
X411694Y303757D01*
X413806Y303757D01*
X415756Y302949D01*
X417249Y301456D01*
X418057Y299506D01*
X418057Y297394D01*
X417249Y295444D01*
X415916Y294112D01*
X415856Y294033D01*
X415788Y293961D01*
X415759Y293908D01*
X415722Y293860D01*
X415682Y293769D01*
X415634Y293683D01*
X415619Y293624D01*
X415609Y293601D01*
X415607Y293596D01*
X415595Y293568D01*
X415580Y293471D01*
X415555Y293375D01*
X415550Y293299D01*
X415547Y293284D01*
X415548Y293271D01*
X415545Y293254D01*
X415547Y293242D01*
X415545Y293214D01*
X415545Y233836D01*
X415557Y233738D01*
X415560Y233639D01*
X415577Y233580D01*
X415585Y233520D01*
X415621Y233428D01*
X415649Y233333D01*
X415679Y233281D01*
X415702Y233225D01*
X415760Y233145D01*
X415810Y233059D01*
X415876Y232984D01*
X415888Y232967D01*
X415898Y232960D01*
X415916Y232938D01*
X417249Y231606D01*
X418057Y229656D01*
X418057Y227544D01*
X417249Y225594D01*
X415756Y224101D01*
X413806Y223293D01*
X411694Y223293D01*
G37*
%LPD*%
%LPC*%
G36*
X398994Y204243D02*
X398994Y204243D01*
X397044Y205051D01*
X395551Y206544D01*
X394743Y208494D01*
X394743Y210606D01*
X395551Y212556D01*
X396884Y213888D01*
X396944Y213967D01*
X397012Y214039D01*
X397041Y214092D01*
X397078Y214140D01*
X397118Y214231D01*
X397166Y214317D01*
X397181Y214376D01*
X397205Y214432D01*
X397220Y214529D01*
X397245Y214625D01*
X397251Y214725D01*
X397255Y214746D01*
X397253Y214758D01*
X397255Y214786D01*
X397255Y248764D01*
X397243Y248862D01*
X397240Y248961D01*
X397223Y249020D01*
X397215Y249080D01*
X397179Y249172D01*
X397151Y249267D01*
X397121Y249319D01*
X397098Y249375D01*
X397040Y249455D01*
X396990Y249541D01*
X396951Y249585D01*
X396949Y249588D01*
X396945Y249592D01*
X396924Y249616D01*
X396912Y249633D01*
X396902Y249640D01*
X396884Y249662D01*
X395551Y250994D01*
X394743Y252944D01*
X394743Y255056D01*
X395551Y257006D01*
X397044Y258499D01*
X398994Y259307D01*
X401106Y259307D01*
X403056Y258499D01*
X404549Y257006D01*
X405357Y255056D01*
X405357Y252944D01*
X404549Y250994D01*
X403216Y249662D01*
X403156Y249583D01*
X403088Y249511D01*
X403063Y249466D01*
X403058Y249460D01*
X403055Y249453D01*
X403022Y249410D01*
X402982Y249319D01*
X402934Y249233D01*
X402919Y249174D01*
X402895Y249118D01*
X402880Y249021D01*
X402855Y248925D01*
X402849Y248825D01*
X402845Y248804D01*
X402847Y248792D01*
X402845Y248764D01*
X402845Y214786D01*
X402857Y214688D01*
X402860Y214589D01*
X402877Y214530D01*
X402885Y214470D01*
X402921Y214378D01*
X402949Y214283D01*
X402979Y214231D01*
X403002Y214175D01*
X403060Y214095D01*
X403110Y214009D01*
X403176Y213934D01*
X403188Y213917D01*
X403198Y213910D01*
X403216Y213888D01*
X404549Y212556D01*
X405357Y210606D01*
X405357Y208494D01*
X404549Y206544D01*
X403056Y205051D01*
X401106Y204243D01*
X398994Y204243D01*
G37*
%LPD*%
%LPC*%
G36*
X56328Y284035D02*
X56328Y284035D01*
X55435Y284928D01*
X55435Y299272D01*
X56328Y300165D01*
X70672Y300165D01*
X71565Y299272D01*
X71565Y284928D01*
X70672Y284035D01*
X56328Y284035D01*
G37*
%LPD*%
%LPC*%
G36*
X552128Y55935D02*
X552128Y55935D01*
X551235Y56828D01*
X551235Y70172D01*
X552128Y71065D01*
X565472Y71065D01*
X566365Y70172D01*
X566365Y56828D01*
X565472Y55935D01*
X552128Y55935D01*
G37*
%LPD*%
%LPC*%
G36*
X276513Y322071D02*
X276513Y322071D01*
X273525Y323309D01*
X271239Y325595D01*
X270001Y328583D01*
X270001Y331817D01*
X271239Y334805D01*
X273525Y337091D01*
X276513Y338329D01*
X279747Y338329D01*
X282735Y337091D01*
X285021Y334805D01*
X286259Y331817D01*
X286259Y328583D01*
X285021Y325595D01*
X282735Y323309D01*
X279747Y322071D01*
X276513Y322071D01*
G37*
%LPD*%
%LPC*%
G36*
X228253Y322071D02*
X228253Y322071D01*
X225265Y323309D01*
X222979Y325595D01*
X221741Y328583D01*
X221741Y331817D01*
X222979Y334805D01*
X225265Y337091D01*
X228253Y338329D01*
X231487Y338329D01*
X234475Y337091D01*
X236761Y334805D01*
X237999Y331817D01*
X237999Y328583D01*
X236761Y325595D01*
X234475Y323309D01*
X231487Y322071D01*
X228253Y322071D01*
G37*
%LPD*%
%LPC*%
G36*
X442896Y328485D02*
X442896Y328485D01*
X439932Y329713D01*
X437663Y331982D01*
X436435Y334946D01*
X436435Y338154D01*
X437663Y341118D01*
X439932Y343387D01*
X442896Y344615D01*
X446104Y344615D01*
X449068Y343387D01*
X451337Y341118D01*
X452565Y338154D01*
X452565Y334946D01*
X451337Y331982D01*
X449068Y329713D01*
X446104Y328485D01*
X442896Y328485D01*
G37*
%LPD*%
%LPC*%
G36*
X392096Y328485D02*
X392096Y328485D01*
X389132Y329713D01*
X386863Y331982D01*
X385635Y334946D01*
X385635Y338154D01*
X386863Y341118D01*
X389132Y343387D01*
X392096Y344615D01*
X395304Y344615D01*
X398268Y343387D01*
X400537Y341118D01*
X401765Y338154D01*
X401765Y334946D01*
X400537Y331982D01*
X398268Y329713D01*
X395304Y328485D01*
X392096Y328485D01*
G37*
%LPD*%
%LPC*%
G36*
X61896Y157035D02*
X61896Y157035D01*
X58932Y158263D01*
X56663Y160532D01*
X55435Y163496D01*
X55435Y166704D01*
X56663Y169668D01*
X58932Y171937D01*
X61896Y173165D01*
X65104Y173165D01*
X68068Y171937D01*
X70337Y169668D01*
X71565Y166704D01*
X71565Y163496D01*
X70337Y160532D01*
X68068Y158263D01*
X65104Y157035D01*
X61896Y157035D01*
G37*
%LPD*%
%LPC*%
G36*
X61896Y207835D02*
X61896Y207835D01*
X58932Y209063D01*
X56663Y211332D01*
X55435Y214296D01*
X55435Y217504D01*
X56663Y220468D01*
X58932Y222737D01*
X61896Y223965D01*
X65104Y223965D01*
X68068Y222737D01*
X70337Y220468D01*
X71565Y217504D01*
X71565Y214296D01*
X70337Y211332D01*
X68068Y209063D01*
X65104Y207835D01*
X61896Y207835D01*
G37*
%LPD*%
%LPC*%
G36*
X61896Y258635D02*
X61896Y258635D01*
X58932Y259863D01*
X56663Y262132D01*
X55435Y265096D01*
X55435Y268304D01*
X56663Y271268D01*
X58932Y273537D01*
X61896Y274765D01*
X65104Y274765D01*
X68068Y273537D01*
X70337Y271268D01*
X71565Y268304D01*
X71565Y265096D01*
X70337Y262132D01*
X68068Y259863D01*
X65104Y258635D01*
X61896Y258635D01*
G37*
%LPD*%
%LPC*%
G36*
X633495Y284535D02*
X633495Y284535D01*
X630715Y285687D01*
X628587Y287815D01*
X627435Y290595D01*
X627435Y293605D01*
X628587Y296385D01*
X630715Y298513D01*
X633495Y299665D01*
X636505Y299665D01*
X639285Y298513D01*
X641413Y296385D01*
X642565Y293605D01*
X642565Y290595D01*
X641413Y287815D01*
X639285Y285687D01*
X636505Y284535D01*
X633495Y284535D01*
G37*
%LPD*%
%LPC*%
G36*
X633495Y214685D02*
X633495Y214685D01*
X630715Y215837D01*
X628587Y217965D01*
X627435Y220745D01*
X627435Y223755D01*
X628587Y226535D01*
X630715Y228663D01*
X633495Y229815D01*
X636505Y229815D01*
X639285Y228663D01*
X641413Y226535D01*
X642565Y223755D01*
X642565Y220745D01*
X641413Y217965D01*
X639285Y215837D01*
X636505Y214685D01*
X633495Y214685D01*
G37*
%LPD*%
%LPC*%
G36*
X633495Y144835D02*
X633495Y144835D01*
X630715Y145987D01*
X628587Y148115D01*
X627435Y150895D01*
X627435Y153905D01*
X628587Y156685D01*
X630715Y158813D01*
X633495Y159965D01*
X636505Y159965D01*
X639285Y158813D01*
X641413Y156685D01*
X642565Y153905D01*
X642565Y150895D01*
X641413Y148115D01*
X639285Y145987D01*
X636505Y144835D01*
X633495Y144835D01*
G37*
%LPD*%
%LPC*%
G36*
X61995Y100385D02*
X61995Y100385D01*
X59215Y101537D01*
X57087Y103665D01*
X55935Y106445D01*
X55935Y109455D01*
X57087Y112235D01*
X59215Y114363D01*
X61995Y115515D01*
X65005Y115515D01*
X67785Y114363D01*
X69913Y112235D01*
X71065Y109455D01*
X71065Y106445D01*
X69913Y103665D01*
X67785Y101537D01*
X65005Y100385D01*
X61995Y100385D01*
G37*
%LPD*%
%LPC*%
G36*
X633495Y74985D02*
X633495Y74985D01*
X630715Y76137D01*
X628587Y78265D01*
X627435Y81045D01*
X627435Y84055D01*
X628587Y86835D01*
X630715Y88963D01*
X633495Y90115D01*
X636505Y90115D01*
X639285Y88963D01*
X641413Y86835D01*
X642565Y84055D01*
X642565Y81045D01*
X641413Y78265D01*
X639285Y76137D01*
X636505Y74985D01*
X633495Y74985D01*
G37*
%LPD*%
%LPC*%
G36*
X531895Y55935D02*
X531895Y55935D01*
X529115Y57087D01*
X526987Y59215D01*
X525835Y61995D01*
X525835Y65005D01*
X526987Y67785D01*
X529115Y69913D01*
X531895Y71065D01*
X534905Y71065D01*
X537685Y69913D01*
X539813Y67785D01*
X540965Y65005D01*
X540965Y61995D01*
X539813Y59215D01*
X537685Y57087D01*
X534905Y55935D01*
X531895Y55935D01*
G37*
%LPD*%
%LPC*%
G36*
X277895Y55935D02*
X277895Y55935D01*
X275115Y57087D01*
X272987Y59215D01*
X271835Y61995D01*
X271835Y65005D01*
X272987Y67785D01*
X275115Y69913D01*
X277895Y71065D01*
X280905Y71065D01*
X283685Y69913D01*
X285813Y67785D01*
X286965Y65005D01*
X286965Y61995D01*
X285813Y59215D01*
X283685Y57087D01*
X280905Y55935D01*
X277895Y55935D01*
G37*
%LPD*%
%LPC*%
G36*
X65249Y84299D02*
X65249Y84299D01*
X65249Y91131D01*
X69874Y91131D01*
X70521Y90958D01*
X71100Y90623D01*
X71573Y90150D01*
X71908Y89571D01*
X72081Y88924D01*
X72081Y84299D01*
X65249Y84299D01*
G37*
%LPD*%
%LPC*%
G36*
X306549Y65249D02*
X306549Y65249D01*
X306549Y72081D01*
X311174Y72081D01*
X311821Y71908D01*
X312400Y71573D01*
X312873Y71100D01*
X313208Y70521D01*
X313381Y69874D01*
X313381Y65249D01*
X306549Y65249D01*
G37*
%LPD*%
%LPC*%
G36*
X54919Y84299D02*
X54919Y84299D01*
X54919Y88924D01*
X55092Y89571D01*
X55427Y90150D01*
X55900Y90623D01*
X56479Y90958D01*
X57126Y91131D01*
X61751Y91131D01*
X61751Y84299D01*
X54919Y84299D01*
G37*
%LPD*%
%LPC*%
G36*
X65249Y73969D02*
X65249Y73969D01*
X65249Y80801D01*
X72081Y80801D01*
X72081Y76176D01*
X71908Y75529D01*
X71573Y74950D01*
X71100Y74477D01*
X70521Y74142D01*
X69874Y73969D01*
X65249Y73969D01*
G37*
%LPD*%
%LPC*%
G36*
X296219Y65249D02*
X296219Y65249D01*
X296219Y69874D01*
X296392Y70521D01*
X296727Y71100D01*
X297200Y71573D01*
X297779Y71908D01*
X298426Y72081D01*
X303051Y72081D01*
X303051Y65249D01*
X296219Y65249D01*
G37*
%LPD*%
%LPC*%
G36*
X306549Y54919D02*
X306549Y54919D01*
X306549Y61751D01*
X313381Y61751D01*
X313381Y57126D01*
X313208Y56479D01*
X312873Y55900D01*
X312400Y55427D01*
X311821Y55092D01*
X311174Y54919D01*
X306549Y54919D01*
G37*
%LPD*%
%LPC*%
G36*
X57126Y73969D02*
X57126Y73969D01*
X56479Y74142D01*
X55900Y74477D01*
X55427Y74950D01*
X55092Y75529D01*
X54919Y76176D01*
X54919Y80801D01*
X61751Y80801D01*
X61751Y73969D01*
X57126Y73969D01*
G37*
%LPD*%
%LPC*%
G36*
X298426Y54919D02*
X298426Y54919D01*
X297779Y55092D01*
X297200Y55427D01*
X296727Y55900D01*
X296392Y56479D01*
X296219Y57126D01*
X296219Y61751D01*
X303051Y61751D01*
X303051Y54919D01*
X298426Y54919D01*
G37*
%LPD*%
%LPC*%
G36*
X421099Y338549D02*
X421099Y338549D01*
X421099Y345427D01*
X421226Y345407D01*
X422586Y344965D01*
X423859Y344317D01*
X425016Y343476D01*
X426026Y342466D01*
X426867Y341309D01*
X427515Y340036D01*
X427957Y338676D01*
X427977Y338549D01*
X421099Y338549D01*
G37*
%LPD*%
%LPC*%
G36*
X65499Y192499D02*
X65499Y192499D01*
X65499Y199377D01*
X65626Y199357D01*
X66986Y198915D01*
X68259Y198267D01*
X69416Y197426D01*
X70426Y196416D01*
X71267Y195259D01*
X71915Y193986D01*
X72357Y192626D01*
X72377Y192499D01*
X65499Y192499D01*
G37*
%LPD*%
%LPC*%
G36*
X421099Y334551D02*
X421099Y334551D01*
X427977Y334551D01*
X427957Y334424D01*
X427515Y333064D01*
X426867Y331791D01*
X426026Y330634D01*
X425016Y329624D01*
X423859Y328783D01*
X422586Y328135D01*
X421226Y327693D01*
X421099Y327673D01*
X421099Y334551D01*
G37*
%LPD*%
%LPC*%
G36*
X54623Y192499D02*
X54623Y192499D01*
X54643Y192626D01*
X55085Y193986D01*
X55733Y195259D01*
X56574Y196416D01*
X57584Y197426D01*
X58741Y198267D01*
X60014Y198915D01*
X61374Y199357D01*
X61501Y199377D01*
X61501Y192499D01*
X54623Y192499D01*
G37*
%LPD*%
%LPC*%
G36*
X410223Y338549D02*
X410223Y338549D01*
X410243Y338676D01*
X410685Y340036D01*
X411333Y341309D01*
X412174Y342466D01*
X413184Y343476D01*
X414341Y344317D01*
X415614Y344965D01*
X416974Y345407D01*
X417101Y345427D01*
X417101Y338549D01*
X410223Y338549D01*
G37*
%LPD*%
%LPC*%
G36*
X65499Y188501D02*
X65499Y188501D01*
X72377Y188501D01*
X72357Y188374D01*
X71915Y187014D01*
X71267Y185741D01*
X70426Y184584D01*
X69416Y183574D01*
X68259Y182733D01*
X66986Y182085D01*
X65626Y181643D01*
X65499Y181623D01*
X65499Y188501D01*
G37*
%LPD*%
%LPC*%
G36*
X416974Y327693D02*
X416974Y327693D01*
X415614Y328135D01*
X414341Y328783D01*
X413184Y329624D01*
X412174Y330634D01*
X411333Y331791D01*
X410685Y333064D01*
X410243Y334424D01*
X410223Y334551D01*
X417101Y334551D01*
X417101Y327673D01*
X416974Y327693D01*
G37*
%LPD*%
%LPC*%
G36*
X61374Y181643D02*
X61374Y181643D01*
X60014Y182085D01*
X58741Y182733D01*
X57584Y183574D01*
X56574Y184584D01*
X55733Y185741D01*
X55085Y187014D01*
X54643Y188374D01*
X54623Y188501D01*
X61501Y188501D01*
X61501Y181623D01*
X61374Y181643D01*
G37*
%LPD*%
D10*
X0Y0D02*
X700000Y0D01*
X700000Y400000D01*
X0Y400000D01*
X0Y0D01*
X14000Y30000D02*
X14005Y30393D01*
X14019Y30785D01*
X14043Y31177D01*
X14077Y31568D01*
X14120Y31959D01*
X14173Y32348D01*
X14236Y32735D01*
X14307Y33121D01*
X14389Y33506D01*
X14479Y33888D01*
X14580Y34267D01*
X14689Y34645D01*
X14808Y35019D01*
X14935Y35390D01*
X15072Y35758D01*
X15218Y36123D01*
X15373Y36484D01*
X15536Y36841D01*
X15708Y37194D01*
X15889Y37542D01*
X16079Y37886D01*
X16276Y38226D01*
X16482Y38560D01*
X16696Y38889D01*
X16919Y39213D01*
X17149Y39531D01*
X17386Y39844D01*
X17632Y40150D01*
X17885Y40451D01*
X18145Y40745D01*
X18412Y41033D01*
X18686Y41314D01*
X18967Y41588D01*
X19255Y41855D01*
X19549Y42115D01*
X19850Y42368D01*
X20156Y42614D01*
X20469Y42851D01*
X20787Y43081D01*
X21111Y43304D01*
X21440Y43518D01*
X21774Y43724D01*
X22114Y43921D01*
X22458Y44111D01*
X22806Y44292D01*
X23159Y44464D01*
X23516Y44627D01*
X23877Y44782D01*
X24242Y44928D01*
X24610Y45065D01*
X24981Y45192D01*
X25355Y45311D01*
X25733Y45420D01*
X26112Y45521D01*
X26494Y45611D01*
X26879Y45693D01*
X27265Y45764D01*
X27652Y45827D01*
X28041Y45880D01*
X28432Y45923D01*
X28823Y45957D01*
X29215Y45981D01*
X29607Y45995D01*
X30000Y46000D01*
X30393Y45995D01*
X30785Y45981D01*
X31177Y45957D01*
X31568Y45923D01*
X31959Y45880D01*
X32348Y45827D01*
X32735Y45764D01*
X33121Y45693D01*
X33506Y45611D01*
X33888Y45521D01*
X34267Y45420D01*
X34645Y45311D01*
X35019Y45192D01*
X35390Y45065D01*
X35758Y44928D01*
X36123Y44782D01*
X36484Y44627D01*
X36841Y44464D01*
X37194Y44292D01*
X37542Y44111D01*
X37886Y43921D01*
X38226Y43724D01*
X38560Y43518D01*
X38889Y43304D01*
X39213Y43081D01*
X39531Y42851D01*
X39844Y42614D01*
X40150Y42368D01*
X40451Y42115D01*
X40745Y41855D01*
X41033Y41588D01*
X41314Y41314D01*
X41588Y41033D01*
X41855Y40745D01*
X42115Y40451D01*
X42368Y40150D01*
X42614Y39844D01*
X42851Y39531D01*
X43081Y39213D01*
X43304Y38889D01*
X43518Y38560D01*
X43724Y38226D01*
X43921Y37886D01*
X44111Y37542D01*
X44292Y37194D01*
X44464Y36841D01*
X44627Y36484D01*
X44782Y36123D01*
X44928Y35758D01*
X45065Y35390D01*
X45192Y35019D01*
X45311Y34645D01*
X45420Y34267D01*
X45521Y33888D01*
X45611Y33506D01*
X45693Y33121D01*
X45764Y32735D01*
X45827Y32348D01*
X45880Y31959D01*
X45923Y31568D01*
X45957Y31177D01*
X45981Y30785D01*
X45995Y30393D01*
X46000Y30000D01*
X45995Y29607D01*
X45981Y29215D01*
X45957Y28823D01*
X45923Y28432D01*
X45880Y28041D01*
X45827Y27652D01*
X45764Y27265D01*
X45693Y26879D01*
X45611Y26494D01*
X45521Y26112D01*
X45420Y25733D01*
X45311Y25355D01*
X45192Y24981D01*
X45065Y24610D01*
X44928Y24242D01*
X44782Y23877D01*
X44627Y23516D01*
X44464Y23159D01*
X44292Y22806D01*
X44111Y22458D01*
X43921Y22114D01*
X43724Y21774D01*
X43518Y21440D01*
X43304Y21111D01*
X43081Y20787D01*
X42851Y20469D01*
X42614Y20156D01*
X42368Y19850D01*
X42115Y19549D01*
X41855Y19255D01*
X41588Y18967D01*
X41314Y18686D01*
X41033Y18412D01*
X40745Y18145D01*
X40451Y17885D01*
X40150Y17632D01*
X39844Y17386D01*
X39531Y17149D01*
X39213Y16919D01*
X38889Y16696D01*
X38560Y16482D01*
X38226Y16276D01*
X37886Y16079D01*
X37542Y15889D01*
X37194Y15708D01*
X36841Y15536D01*
X36484Y15373D01*
X36123Y15218D01*
X35758Y15072D01*
X35390Y14935D01*
X35019Y14808D01*
X34645Y14689D01*
X34267Y14580D01*
X33888Y14479D01*
X33506Y14389D01*
X33121Y14307D01*
X32735Y14236D01*
X32348Y14173D01*
X31959Y14120D01*
X31568Y14077D01*
X31177Y14043D01*
X30785Y14019D01*
X30393Y14005D01*
X30000Y14000D01*
X29607Y14005D01*
X29215Y14019D01*
X28823Y14043D01*
X28432Y14077D01*
X28041Y14120D01*
X27652Y14173D01*
X27265Y14236D01*
X26879Y14307D01*
X26494Y14389D01*
X26112Y14479D01*
X25733Y14580D01*
X25355Y14689D01*
X24981Y14808D01*
X24610Y14935D01*
X24242Y15072D01*
X23877Y15218D01*
X23516Y15373D01*
X23159Y15536D01*
X22806Y15708D01*
X22458Y15889D01*
X22114Y16079D01*
X21774Y16276D01*
X21440Y16482D01*
X21111Y16696D01*
X20787Y16919D01*
X20469Y17149D01*
X20156Y17386D01*
X19850Y17632D01*
X19549Y17885D01*
X19255Y18145D01*
X18967Y18412D01*
X18686Y18686D01*
X18412Y18967D01*
X18145Y19255D01*
X17885Y19549D01*
X17632Y19850D01*
X17386Y20156D01*
X17149Y20469D01*
X16919Y20787D01*
X16696Y21111D01*
X16482Y21440D01*
X16276Y21774D01*
X16079Y22114D01*
X15889Y22458D01*
X15708Y22806D01*
X15536Y23159D01*
X15373Y23516D01*
X15218Y23877D01*
X15072Y24242D01*
X14935Y24610D01*
X14808Y24981D01*
X14689Y25355D01*
X14580Y25733D01*
X14479Y26112D01*
X14389Y26494D01*
X14307Y26879D01*
X14236Y27265D01*
X14173Y27652D01*
X14120Y28041D01*
X14077Y28432D01*
X14043Y28823D01*
X14019Y29215D01*
X14005Y29607D01*
X14000Y30000D01*
X654000Y30000D02*
X654005Y30393D01*
X654019Y30785D01*
X654043Y31177D01*
X654077Y31568D01*
X654120Y31959D01*
X654173Y32348D01*
X654236Y32735D01*
X654307Y33121D01*
X654389Y33506D01*
X654479Y33888D01*
X654580Y34267D01*
X654689Y34645D01*
X654808Y35019D01*
X654935Y35390D01*
X655072Y35758D01*
X655218Y36123D01*
X655373Y36484D01*
X655536Y36841D01*
X655708Y37194D01*
X655889Y37542D01*
X656079Y37886D01*
X656276Y38226D01*
X656482Y38560D01*
X656696Y38889D01*
X656919Y39213D01*
X657149Y39531D01*
X657386Y39844D01*
X657632Y40150D01*
X657885Y40451D01*
X658145Y40745D01*
X658412Y41033D01*
X658686Y41314D01*
X658967Y41588D01*
X659255Y41855D01*
X659549Y42115D01*
X659850Y42368D01*
X660156Y42614D01*
X660469Y42851D01*
X660787Y43081D01*
X661111Y43304D01*
X661440Y43518D01*
X661774Y43724D01*
X662114Y43921D01*
X662458Y44111D01*
X662806Y44292D01*
X663159Y44464D01*
X663516Y44627D01*
X663877Y44782D01*
X664242Y44928D01*
X664610Y45065D01*
X664981Y45192D01*
X665355Y45311D01*
X665733Y45420D01*
X666112Y45521D01*
X666494Y45611D01*
X666879Y45693D01*
X667265Y45764D01*
X667652Y45827D01*
X668041Y45880D01*
X668432Y45923D01*
X668823Y45957D01*
X669215Y45981D01*
X669607Y45995D01*
X670000Y46000D01*
X670393Y45995D01*
X670785Y45981D01*
X671177Y45957D01*
X671568Y45923D01*
X671959Y45880D01*
X672348Y45827D01*
X672735Y45764D01*
X673121Y45693D01*
X673506Y45611D01*
X673888Y45521D01*
X674267Y45420D01*
X674645Y45311D01*
X675019Y45192D01*
X675390Y45065D01*
X675758Y44928D01*
X676123Y44782D01*
X676484Y44627D01*
X676841Y44464D01*
X677194Y44292D01*
X677542Y44111D01*
X677886Y43921D01*
X678226Y43724D01*
X678560Y43518D01*
X678889Y43304D01*
X679213Y43081D01*
X679531Y42851D01*
X679844Y42614D01*
X680150Y42368D01*
X680451Y42115D01*
X680745Y41855D01*
X681033Y41588D01*
X681314Y41314D01*
X681588Y41033D01*
X681855Y40745D01*
X682115Y40451D01*
X682368Y40150D01*
X682614Y39844D01*
X682851Y39531D01*
X683081Y39213D01*
X683304Y38889D01*
X683518Y38560D01*
X683724Y38226D01*
X683921Y37886D01*
X684111Y37542D01*
X684292Y37194D01*
X684464Y36841D01*
X684627Y36484D01*
X684782Y36123D01*
X684928Y35758D01*
X685065Y35390D01*
X685192Y35019D01*
X685311Y34645D01*
X685420Y34267D01*
X685521Y33888D01*
X685611Y33506D01*
X685693Y33121D01*
X685764Y32735D01*
X685827Y32348D01*
X685880Y31959D01*
X685923Y31568D01*
X685957Y31177D01*
X685981Y30785D01*
X685995Y30393D01*
X686000Y30000D01*
X685995Y29607D01*
X685981Y29215D01*
X685957Y28823D01*
X685923Y28432D01*
X685880Y28041D01*
X685827Y27652D01*
X685764Y27265D01*
X685693Y26879D01*
X685611Y26494D01*
X685521Y26112D01*
X685420Y25733D01*
X685311Y25355D01*
X685192Y24981D01*
X685065Y24610D01*
X684928Y24242D01*
X684782Y23877D01*
X684627Y23516D01*
X684464Y23159D01*
X684292Y22806D01*
X684111Y22458D01*
X683921Y22114D01*
X683724Y21774D01*
X683518Y21440D01*
X683304Y21111D01*
X683081Y20787D01*
X682851Y20469D01*
X682614Y20156D01*
X682368Y19850D01*
X682115Y19549D01*
X681855Y19255D01*
X681588Y18967D01*
X681314Y18686D01*
X681033Y18412D01*
X680745Y18145D01*
X680451Y17885D01*
X680150Y17632D01*
X679844Y17386D01*
X679531Y17149D01*
X679213Y16919D01*
X678889Y16696D01*
X678560Y16482D01*
X678226Y16276D01*
X677886Y16079D01*
X677542Y15889D01*
X677194Y15708D01*
X676841Y15536D01*
X676484Y15373D01*
X676123Y15218D01*
X675758Y15072D01*
X675390Y14935D01*
X675019Y14808D01*
X674645Y14689D01*
X674267Y14580D01*
X673888Y14479D01*
X673506Y14389D01*
X673121Y14307D01*
X672735Y14236D01*
X672348Y14173D01*
X671959Y14120D01*
X671568Y14077D01*
X671177Y14043D01*
X670785Y14019D01*
X670393Y14005D01*
X670000Y14000D01*
X669607Y14005D01*
X669215Y14019D01*
X668823Y14043D01*
X668432Y14077D01*
X668041Y14120D01*
X667652Y14173D01*
X667265Y14236D01*
X666879Y14307D01*
X666494Y14389D01*
X666112Y14479D01*
X665733Y14580D01*
X665355Y14689D01*
X664981Y14808D01*
X664610Y14935D01*
X664242Y15072D01*
X663877Y15218D01*
X663516Y15373D01*
X663159Y15536D01*
X662806Y15708D01*
X662458Y15889D01*
X662114Y16079D01*
X661774Y16276D01*
X661440Y16482D01*
X661111Y16696D01*
X660787Y16919D01*
X660469Y17149D01*
X660156Y17386D01*
X659850Y17632D01*
X659549Y17885D01*
X659255Y18145D01*
X658967Y18412D01*
X658686Y18686D01*
X658412Y18967D01*
X658145Y19255D01*
X657885Y19549D01*
X657632Y19850D01*
X657386Y20156D01*
X657149Y20469D01*
X656919Y20787D01*
X656696Y21111D01*
X656482Y21440D01*
X656276Y21774D01*
X656079Y22114D01*
X655889Y22458D01*
X655708Y22806D01*
X655536Y23159D01*
X655373Y23516D01*
X655218Y23877D01*
X655072Y24242D01*
X654935Y24610D01*
X654808Y24981D01*
X654689Y25355D01*
X654580Y25733D01*
X654479Y26112D01*
X654389Y26494D01*
X654307Y26879D01*
X654236Y27265D01*
X654173Y27652D01*
X654120Y28041D01*
X654077Y28432D01*
X654043Y28823D01*
X654019Y29215D01*
X654005Y29607D01*
X654000Y30000D01*
X14000Y370000D02*
X14005Y370393D01*
X14019Y370785D01*
X14043Y371177D01*
X14077Y371568D01*
X14120Y371959D01*
X14173Y372348D01*
X14236Y372735D01*
X14307Y373121D01*
X14389Y373506D01*
X14479Y373888D01*
X14580Y374267D01*
X14689Y374645D01*
X14808Y375019D01*
X14935Y375390D01*
X15072Y375758D01*
X15218Y376123D01*
X15373Y376484D01*
X15536Y376841D01*
X15708Y377194D01*
X15889Y377542D01*
X16079Y377886D01*
X16276Y378226D01*
X16482Y378560D01*
X16696Y378889D01*
X16919Y379213D01*
X17149Y379531D01*
X17386Y379844D01*
X17632Y380150D01*
X17885Y380451D01*
X18145Y380745D01*
X18412Y381033D01*
X18686Y381314D01*
X18967Y381588D01*
X19255Y381855D01*
X19549Y382115D01*
X19850Y382368D01*
X20156Y382614D01*
X20469Y382851D01*
X20787Y383081D01*
X21111Y383304D01*
X21440Y383518D01*
X21774Y383724D01*
X22114Y383921D01*
X22458Y384111D01*
X22806Y384292D01*
X23159Y384464D01*
X23516Y384627D01*
X23877Y384782D01*
X24242Y384928D01*
X24610Y385065D01*
X24981Y385192D01*
X25355Y385311D01*
X25733Y385420D01*
X26112Y385521D01*
X26494Y385611D01*
X26879Y385693D01*
X27265Y385764D01*
X27652Y385827D01*
X28041Y385880D01*
X28432Y385923D01*
X28823Y385957D01*
X29215Y385981D01*
X29607Y385995D01*
X30000Y386000D01*
X30393Y385995D01*
X30785Y385981D01*
X31177Y385957D01*
X31568Y385923D01*
X31959Y385880D01*
X32348Y385827D01*
X32735Y385764D01*
X33121Y385693D01*
X33506Y385611D01*
X33888Y385521D01*
X34267Y385420D01*
X34645Y385311D01*
X35019Y385192D01*
X35390Y385065D01*
X35758Y384928D01*
X36123Y384782D01*
X36484Y384627D01*
X36841Y384464D01*
X37194Y384292D01*
X37542Y384111D01*
X37886Y383921D01*
X38226Y383724D01*
X38560Y383518D01*
X38889Y383304D01*
X39213Y383081D01*
X39531Y382851D01*
X39844Y382614D01*
X40150Y382368D01*
X40451Y382115D01*
X40745Y381855D01*
X41033Y381588D01*
X41314Y381314D01*
X41588Y381033D01*
X41855Y380745D01*
X42115Y380451D01*
X42368Y380150D01*
X42614Y379844D01*
X42851Y379531D01*
X43081Y379213D01*
X43304Y378889D01*
X43518Y378560D01*
X43724Y378226D01*
X43921Y377886D01*
X44111Y377542D01*
X44292Y377194D01*
X44464Y376841D01*
X44627Y376484D01*
X44782Y376123D01*
X44928Y375758D01*
X45065Y375390D01*
X45192Y375019D01*
X45311Y374645D01*
X45420Y374267D01*
X45521Y373888D01*
X45611Y373506D01*
X45693Y373121D01*
X45764Y372735D01*
X45827Y372348D01*
X45880Y371959D01*
X45923Y371568D01*
X45957Y371177D01*
X45981Y370785D01*
X45995Y370393D01*
X46000Y370000D01*
X45995Y369607D01*
X45981Y369215D01*
X45957Y368823D01*
X45923Y368432D01*
X45880Y368041D01*
X45827Y367652D01*
X45764Y367265D01*
X45693Y366879D01*
X45611Y366494D01*
X45521Y366112D01*
X45420Y365733D01*
X45311Y365355D01*
X45192Y364981D01*
X45065Y364610D01*
X44928Y364242D01*
X44782Y363877D01*
X44627Y363516D01*
X44464Y363159D01*
X44292Y362806D01*
X44111Y362458D01*
X43921Y362114D01*
X43724Y361774D01*
X43518Y361440D01*
X43304Y361111D01*
X43081Y360787D01*
X42851Y360469D01*
X42614Y360156D01*
X42368Y359850D01*
X42115Y359549D01*
X41855Y359255D01*
X41588Y358967D01*
X41314Y358686D01*
X41033Y358412D01*
X40745Y358145D01*
X40451Y357885D01*
X40150Y357632D01*
X39844Y357386D01*
X39531Y357149D01*
X39213Y356919D01*
X38889Y356696D01*
X38560Y356482D01*
X38226Y356276D01*
X37886Y356079D01*
X37542Y355889D01*
X37194Y355708D01*
X36841Y355536D01*
X36484Y355373D01*
X36123Y355218D01*
X35758Y355072D01*
X35390Y354935D01*
X35019Y354808D01*
X34645Y354689D01*
X34267Y354580D01*
X33888Y354479D01*
X33506Y354389D01*
X33121Y354307D01*
X32735Y354236D01*
X32348Y354173D01*
X31959Y354120D01*
X31568Y354077D01*
X31177Y354043D01*
X30785Y354019D01*
X30393Y354005D01*
X30000Y354000D01*
X29607Y354005D01*
X29215Y354019D01*
X28823Y354043D01*
X28432Y354077D01*
X28041Y354120D01*
X27652Y354173D01*
X27265Y354236D01*
X26879Y354307D01*
X26494Y354389D01*
X26112Y354479D01*
X25733Y354580D01*
X25355Y354689D01*
X24981Y354808D01*
X24610Y354935D01*
X24242Y355072D01*
X23877Y355218D01*
X23516Y355373D01*
X23159Y355536D01*
X22806Y355708D01*
X22458Y355889D01*
X22114Y356079D01*
X21774Y356276D01*
X21440Y356482D01*
X21111Y356696D01*
X20787Y356919D01*
X20469Y357149D01*
X20156Y357386D01*
X19850Y357632D01*
X19549Y357885D01*
X19255Y358145D01*
X18967Y358412D01*
X18686Y358686D01*
X18412Y358967D01*
X18145Y359255D01*
X17885Y359549D01*
X17632Y359850D01*
X17386Y360156D01*
X17149Y360469D01*
X16919Y360787D01*
X16696Y361111D01*
X16482Y361440D01*
X16276Y361774D01*
X16079Y362114D01*
X15889Y362458D01*
X15708Y362806D01*
X15536Y363159D01*
X15373Y363516D01*
X15218Y363877D01*
X15072Y364242D01*
X14935Y364610D01*
X14808Y364981D01*
X14689Y365355D01*
X14580Y365733D01*
X14479Y366112D01*
X14389Y366494D01*
X14307Y366879D01*
X14236Y367265D01*
X14173Y367652D01*
X14120Y368041D01*
X14077Y368432D01*
X14043Y368823D01*
X14019Y369215D01*
X14005Y369607D01*
X14000Y370000D01*
X654000Y370000D02*
X654005Y370393D01*
X654019Y370785D01*
X654043Y371177D01*
X654077Y371568D01*
X654120Y371959D01*
X654173Y372348D01*
X654236Y372735D01*
X654307Y373121D01*
X654389Y373506D01*
X654479Y373888D01*
X654580Y374267D01*
X654689Y374645D01*
X654808Y375019D01*
X654935Y375390D01*
X655072Y375758D01*
X655218Y376123D01*
X655373Y376484D01*
X655536Y376841D01*
X655708Y377194D01*
X655889Y377542D01*
X656079Y377886D01*
X656276Y378226D01*
X656482Y378560D01*
X656696Y378889D01*
X656919Y379213D01*
X657149Y379531D01*
X657386Y379844D01*
X657632Y380150D01*
X657885Y380451D01*
X658145Y380745D01*
X658412Y381033D01*
X658686Y381314D01*
X658967Y381588D01*
X659255Y381855D01*
X659549Y382115D01*
X659850Y382368D01*
X660156Y382614D01*
X660469Y382851D01*
X660787Y383081D01*
X661111Y383304D01*
X661440Y383518D01*
X661774Y383724D01*
X662114Y383921D01*
X662458Y384111D01*
X662806Y384292D01*
X663159Y384464D01*
X663516Y384627D01*
X663877Y384782D01*
X664242Y384928D01*
X664610Y385065D01*
X664981Y385192D01*
X665355Y385311D01*
X665733Y385420D01*
X666112Y385521D01*
X666494Y385611D01*
X666879Y385693D01*
X667265Y385764D01*
X667652Y385827D01*
X668041Y385880D01*
X668432Y385923D01*
X668823Y385957D01*
X669215Y385981D01*
X669607Y385995D01*
X670000Y386000D01*
X670393Y385995D01*
X670785Y385981D01*
X671177Y385957D01*
X671568Y385923D01*
X671959Y385880D01*
X672348Y385827D01*
X672735Y385764D01*
X673121Y385693D01*
X673506Y385611D01*
X673888Y385521D01*
X674267Y385420D01*
X674645Y385311D01*
X675019Y385192D01*
X675390Y385065D01*
X675758Y384928D01*
X676123Y384782D01*
X676484Y384627D01*
X676841Y384464D01*
X677194Y384292D01*
X677542Y384111D01*
X677886Y383921D01*
X678226Y383724D01*
X678560Y383518D01*
X678889Y383304D01*
X679213Y383081D01*
X679531Y382851D01*
X679844Y382614D01*
X680150Y382368D01*
X680451Y382115D01*
X680745Y381855D01*
X681033Y381588D01*
X681314Y381314D01*
X681588Y381033D01*
X681855Y380745D01*
X682115Y380451D01*
X682368Y380150D01*
X682614Y379844D01*
X682851Y379531D01*
X683081Y379213D01*
X683304Y378889D01*
X683518Y378560D01*
X683724Y378226D01*
X683921Y377886D01*
X684111Y377542D01*
X684292Y377194D01*
X684464Y376841D01*
X684627Y376484D01*
X684782Y376123D01*
X684928Y375758D01*
X685065Y375390D01*
X685192Y375019D01*
X685311Y374645D01*
X685420Y374267D01*
X685521Y373888D01*
X685611Y373506D01*
X685693Y373121D01*
X685764Y372735D01*
X685827Y372348D01*
X685880Y371959D01*
X685923Y371568D01*
X685957Y371177D01*
X685981Y370785D01*
X685995Y370393D01*
X686000Y370000D01*
X685995Y369607D01*
X685981Y369215D01*
X685957Y368823D01*
X685923Y368432D01*
X685880Y368041D01*
X685827Y367652D01*
X685764Y367265D01*
X685693Y366879D01*
X685611Y366494D01*
X685521Y366112D01*
X685420Y365733D01*
X685311Y365355D01*
X685192Y364981D01*
X685065Y364610D01*
X684928Y364242D01*
X684782Y363877D01*
X684627Y363516D01*
X684464Y363159D01*
X684292Y362806D01*
X684111Y362458D01*
X683921Y362114D01*
X683724Y361774D01*
X683518Y361440D01*
X683304Y361111D01*
X683081Y360787D01*
X682851Y360469D01*
X682614Y360156D01*
X682368Y359850D01*
X682115Y359549D01*
X681855Y359255D01*
X681588Y358967D01*
X681314Y358686D01*
X681033Y358412D01*
X680745Y358145D01*
X680451Y357885D01*
X680150Y357632D01*
X679844Y357386D01*
X679531Y357149D01*
X679213Y356919D01*
X678889Y356696D01*
X678560Y356482D01*
X678226Y356276D01*
X677886Y356079D01*
X677542Y355889D01*
X677194Y355708D01*
X676841Y355536D01*
X676484Y355373D01*
X676123Y355218D01*
X675758Y355072D01*
X675390Y354935D01*
X675019Y354808D01*
X674645Y354689D01*
X674267Y354580D01*
X673888Y354479D01*
X673506Y354389D01*
X673121Y354307D01*
X672735Y354236D01*
X672348Y354173D01*
X671959Y354120D01*
X671568Y354077D01*
X671177Y354043D01*
X670785Y354019D01*
X670393Y354005D01*
X670000Y354000D01*
X669607Y354005D01*
X669215Y354019D01*
X668823Y354043D01*
X668432Y354077D01*
X668041Y354120D01*
X667652Y354173D01*
X667265Y354236D01*
X666879Y354307D01*
X666494Y354389D01*
X666112Y354479D01*
X665733Y354580D01*
X665355Y354689D01*
X664981Y354808D01*
X664610Y354935D01*
X664242Y355072D01*
X663877Y355218D01*
X663516Y355373D01*
X663159Y355536D01*
X662806Y355708D01*
X662458Y355889D01*
X662114Y356079D01*
X661774Y356276D01*
X661440Y356482D01*
X661111Y356696D01*
X660787Y356919D01*
X660469Y357149D01*
X660156Y357386D01*
X659850Y357632D01*
X659549Y357885D01*
X659255Y358145D01*
X658967Y358412D01*
X658686Y358686D01*
X658412Y358967D01*
X658145Y359255D01*
X657885Y359549D01*
X657632Y359850D01*
X657386Y360156D01*
X657149Y360469D01*
X656919Y360787D01*
X656696Y361111D01*
X656482Y361440D01*
X656276Y361774D01*
X656079Y362114D01*
X655889Y362458D01*
X655708Y362806D01*
X655536Y363159D01*
X655373Y363516D01*
X655218Y363877D01*
X655072Y364242D01*
X654935Y364610D01*
X654808Y364981D01*
X654689Y365355D01*
X654580Y365733D01*
X654479Y366112D01*
X654389Y366494D01*
X654307Y366879D01*
X654236Y367265D01*
X654173Y367652D01*
X654120Y368041D01*
X654077Y368432D01*
X654043Y368823D01*
X654019Y369215D01*
X654005Y369607D01*
X654000Y370000D01*
D11*
X635000Y317500D03*
D12*
X635000Y292100D03*
D11*
X635000Y247650D03*
D12*
X635000Y222250D03*
D11*
X635000Y177800D03*
D12*
X635000Y152400D03*
D11*
X635000Y107950D03*
D12*
X635000Y82550D03*
D11*
X558800Y63500D03*
D12*
X533400Y63500D03*
D11*
X63500Y82550D03*
D12*
X63500Y107950D03*
D13*
X63500Y241300D03*
X63500Y215900D03*
X63500Y190500D03*
X63500Y165100D03*
X63500Y266700D03*
D14*
X63500Y292100D03*
D15*
X229870Y330200D03*
X278130Y330200D03*
D11*
X304800Y63500D03*
D12*
X279400Y63500D03*
D16*
X279400Y106680D02*
X279400Y121920D01*
X304800Y121920D02*
X304800Y106680D01*
D13*
X419100Y336550D03*
X393700Y336550D03*
X444500Y336550D03*
D14*
X469900Y336550D03*
D17*
X234950Y298450D03*
D18*
X323624Y298450D01*
X330200Y291874D01*
D17*
X330200Y291874D03*
D18*
X330200Y342900D01*
X330200Y291874D02*
X330200Y139700D01*
X304800Y114300D01*
X469900Y336550D02*
X450850Y355600D01*
X342900Y355600D02*
X330200Y342900D01*
X342900Y355600D02*
X450850Y355600D01*
D19*
X304800Y114300D02*
X317500Y101600D01*
X628650Y101600D01*
X635000Y107950D01*
X654050Y107950D01*
X660400Y114300D01*
X660400Y177800D01*
X660400Y247650D01*
X660400Y311150D01*
X654050Y317500D01*
X635000Y317500D01*
X635000Y247650D02*
X660400Y247650D01*
X660400Y177800D02*
X635000Y177800D01*
D17*
X361950Y247650D03*
D18*
X361950Y336550D01*
D17*
X361950Y336550D03*
X374650Y323850D03*
D18*
X374650Y190500D01*
D17*
X374650Y190500D03*
X387350Y279400D03*
D18*
X387350Y202974D01*
D17*
X387350Y202974D03*
X400050Y209550D03*
D18*
X400050Y254000D01*
D17*
X400050Y254000D03*
X412750Y228600D03*
D18*
X412750Y298450D01*
D17*
X412750Y298450D03*
X425450Y304800D03*
D18*
X425450Y203200D01*
D17*
X425450Y203200D03*
X438150Y177800D03*
D18*
X438150Y311150D01*
D17*
X438150Y311150D03*
X153976Y128894D03*
D20*
X88900Y193970D01*
X88900Y234950D01*
X82550Y241300D01*
X63500Y241300D01*
M02*
