M48
;GenerationSoftware,Autodesk,EAGLE,9.2.0*%
;CreationDate,2020-01-23T06:39:14Z*%
FMAT,2
ICI,OFF
METRIC,TZ,000.000
T6C0.350
T5C0.700
T4C0.800
T3C0.813
T2C1.016
T1C3.200
%
G90
M71
T1
X67000Y3000
X3000Y37000
X67000Y37000
X3000Y3000
T2
X30480Y11430
X27940Y11430
T3
X27813Y33020
X22987Y33020
T4
X44450Y33655
X39370Y33655
X41910Y33655
X46990Y33655
X6350Y29210
X6350Y26670
X6350Y16510
X6350Y19050
X6350Y21590
X6350Y24130
T5
X6350Y10795
X30480Y6350
X27940Y6350
X63500Y31750
X63500Y29210
X63500Y24765
X63500Y22225
X63500Y17780
X63500Y15240
X63500Y10795
X63500Y8255
X55880Y6350
X53340Y6350
X6350Y8255
T6
X23495Y29845
X33020Y29187
X36195Y24765
X43815Y17780
X42545Y20320
X42545Y30480
X41275Y29845
X41275Y22860
X40005Y25400
X15398Y12889
X38735Y27940
X40005Y20955
X38735Y20297
X37465Y19050
X37465Y32385
X36195Y33655
X43815Y31115
M30